<svg version="1.1" viewBox="0.0 0.0 601.4383202099738 355.28871391076115" fill="none" stroke="none" stroke-linecap="square" stroke-miterlimit="10" xmlns:xlink="http://www.w3.org/1999/xlink" xmlns="http://www.w3.org/2000/svg"><clipPath id="p.0"><path d="m0 0l601.4383 0l0 355.28873l-601.4383 0l0 -355.28873z" clip-rule="nonzero"/></clipPath><g clip-path="url(#p.0)"><path fill="#000000" fill-opacity="0.0" d="m0 0l601.4383 0l0 355.28873l-601.4383 0z" fill-rule="evenodd"/><path fill="#00ffcc" d="m131.75328 139.35434l126.96062 0l0 52.81891l-126.96062 0z" fill-rule="evenodd"/><path stroke="#666666" stroke-width="1.0" stroke-linejoin="round" stroke-linecap="butt" d="m131.75328 139.35434l126.96062 0l0 52.81891l-126.96062 0z" fill-rule="evenodd"/><path fill="#000000" d="m170.30391 167.01442l-2.671875 0l0 4.609375l-1.515625 0l0 -11.375l3.765625 0q1.921875 0 2.953125 0.875q1.046875 0.875 1.046875 2.546875q0 1.0625 -0.578125 1.859375q-0.578125 0.78125 -1.59375 1.171875l2.671875 4.828125l0 0.09375l-1.609375 0l-2.46875 -4.609375zm-2.671875 -1.21875l2.296875 0q1.125 0 1.78125 -0.578125q0.65625 -0.578125 0.65625 -1.546875q0 -1.0625 -0.625 -1.625q-0.625 -0.5625 -1.8125 -0.5625l-2.296875 0l0 4.3125zm13.3359375 4.984375q-0.84375 1.0 -2.46875 1.0q-1.359375 0 -2.0625 -0.78125q-0.703125 -0.796875 -0.71875 -2.328125l0 -5.5l1.453125 0l0 5.453125q0 1.921875 1.5625 1.921875q1.65625 0 2.203125 -1.234375l0 -6.140625l1.4375 0l0 8.453125l-1.375 0l-0.03125 -0.84375zm8.5234375 -1.40625q0 -0.578125 -0.4375 -0.90625q-0.4375 -0.328125 -1.546875 -0.5625q-1.09375 -0.234375 -1.734375 -0.5625q-0.640625 -0.328125 -0.953125 -0.78125q-0.3125 -0.453125 -0.3125 -1.078125q0 -1.03125 0.875 -1.75q0.890625 -0.71875 2.25 -0.71875q1.4375 0 2.328125 0.75q0.90625 0.734375 0.90625 1.890625l-1.453125 0q0 -0.59375 -0.515625 -1.015625q-0.5 -0.4375 -1.265625 -0.4375q-0.78125 0 -1.234375 0.34375q-0.4375 0.34375 -0.4375 0.890625q0 0.53125 0.40625 0.796875q0.421875 0.265625 1.5 0.515625q1.078125 0.234375 1.75 0.578125q0.671875 0.328125 1.0 0.796875q0.328125 0.46875 0.328125 1.15625q0 1.125 -0.90625 1.8125q-0.90625 0.6875 -2.359375 0.6875q-1.015625 0 -1.796875 -0.359375q-0.78125 -0.359375 -1.21875 -1.0q-0.4375 -0.65625 -0.4375 -1.40625l1.4375 0q0.046875 0.734375 0.578125 1.15625q0.546875 0.421875 1.4375 0.421875q0.828125 0 1.3125 -0.328125q0.5 -0.328125 0.5 -0.890625zm5.296875 -8.25l0 2.046875l1.578125 0l0 1.109375l-1.578125 0l0 5.25q0 0.5 0.203125 0.765625q0.21875 0.25 0.71875 0.25q0.25 0 0.6875 -0.09375l0 1.171875q-0.5625 0.15625 -1.109375 0.15625q-0.96875 0 -1.46875 -0.578125q-0.484375 -0.59375 -0.484375 -1.671875l0 -5.25l-1.53125 0l0 -1.109375l1.53125 0l0 -2.046875l1.453125 0zm13.734375 7.53125l-4.765625 0l-1.078125 2.96875l-1.546875 0l4.34375 -11.375l1.3125 0l4.359375 11.375l-1.546875 0l-1.078125 -2.96875zm-4.3125 -1.234375l3.859375 0l-1.9375 -5.328125l-1.921875 5.328125zm8.46875 4.203125l0 -11.375l3.71875 0q1.84375 0 2.78125 0.765625q0.9375 0.765625 0.9375 2.265625q0 0.796875 -0.453125 1.40625q-0.453125 0.609375 -1.234375 0.953125q0.921875 0.25 1.453125 0.984375q0.53125 0.71875 0.53125 1.71875q0 1.53125 -1.0 2.40625q-0.984375 0.875 -2.796875 0.875l-3.9375 0zm1.5 -5.328125l0 4.09375l2.46875 0q1.046875 0 1.65625 -0.53125q0.609375 -0.546875 0.609375 -1.5q0 -2.0625 -2.234375 -2.0625l-2.5 0zm0 -1.203125l2.265625 0q0.984375 0 1.5625 -0.484375q0.59375 -0.5 0.59375 -1.34375q0 -0.9375 -0.546875 -1.359375q-0.546875 -0.421875 -1.65625 -0.421875l-2.21875 0l0 3.609375zm10.0703125 6.53125l-1.5 0l0 -11.375l1.5 0l0 11.375z" fill-rule="nonzero"/><path fill="#8e7cc3" d="m131.75328 86.519684l126.96062 0l0 52.818893l-126.96062 0z" fill-rule="evenodd"/><path stroke="#666666" stroke-width="1.0" stroke-linejoin="round" stroke-linecap="butt" d="m131.75328 86.519684l126.96062 0l0 52.818893l-126.96062 0z" fill-rule="evenodd"/><path fill="#000000" d="m167.6711 114.179756l-2.671875 0l0 4.609375l-1.515625 0l0 -11.375l3.765625 0q1.921875 0 2.953125 0.875q1.046875 0.875 1.046875 2.546875q0 1.0625 -0.578125 1.859375q-0.578125 0.78125 -1.59375 1.171875l2.671875 4.828125l0 0.09375l-1.609375 0l-2.46875 -4.609375zm-2.671875 -1.21875l2.296875 0q1.125 0 1.78125 -0.578125q0.65625 -0.578125 0.65625 -1.546875q0 -1.0625 -0.625 -1.625q-0.625 -0.5625 -1.8125 -0.5625l-2.296875 0l0 4.3125zm13.3359375 4.984375q-0.84375 1.0 -2.46875 1.0q-1.359375 0 -2.0625 -0.78125q-0.703125 -0.796875 -0.71875 -2.328125l0 -5.5l1.453125 0l0 5.453125q0 1.921875 1.5625 1.921875q1.65625 0 2.203125 -1.234375l0 -6.140625l1.4375 0l0 8.453125l-1.375 0l-0.03125 -0.84375zm8.5234375 -1.40625q0 -0.578125 -0.4375 -0.90625q-0.4375 -0.328125 -1.546875 -0.5625q-1.09375 -0.234375 -1.734375 -0.5625q-0.640625 -0.328125 -0.953125 -0.78125q-0.3125 -0.453125 -0.3125 -1.078125q0 -1.03125 0.875 -1.75q0.890625 -0.71875 2.25 -0.71875q1.4375 0 2.328125 0.75q0.90625 0.734375 0.90625 1.890625l-1.453125 0q0 -0.59375 -0.515625 -1.015625q-0.5 -0.4375 -1.265625 -0.4375q-0.78125 0 -1.234375 0.34375q-0.4375 0.34375 -0.4375 0.890625q0 0.53125 0.40625 0.796875q0.421875 0.265625 1.5 0.515625q1.078125 0.234375 1.75 0.578125q0.671875 0.328125 1.0 0.796875q0.328125 0.46875 0.328125 1.15625q0 1.125 -0.90625 1.8125q-0.90625 0.6875 -2.359375 0.6875q-1.015625 0 -1.796875 -0.359375q-0.78125 -0.359375 -1.21875 -1.0q-0.4375 -0.65625 -0.4375 -1.40625l1.4375 0q0.046875 0.734375 0.578125 1.15625q0.546875 0.421875 1.4375 0.421875q0.828125 0 1.3125 -0.328125q0.5 -0.328125 0.5 -0.890625zm5.296875 -8.25l0 2.046875l1.578125 0l0 1.109375l-1.578125 0l0 5.25q0 0.5 0.203125 0.765625q0.21875 0.25 0.71875 0.25q0.25 0 0.6875 -0.09375l0 1.171875q-0.5625 0.15625 -1.109375 0.15625q-0.96875 0 -1.46875 -0.578125q-0.484375 -0.59375 -0.484375 -1.671875l0 -5.25l-1.53125 0l0 -1.109375l1.53125 0l0 -2.046875l1.453125 0zm10.796875 5.421875q-1.921875 -0.546875 -2.8125 -1.359375q-0.875 -0.8125 -0.875 -2.0q0 -1.34375 1.078125 -2.21875q1.078125 -0.875 2.796875 -0.875q1.171875 0 2.078125 0.453125q0.921875 0.453125 1.421875 1.25q0.515625 0.796875 0.515625 1.734375l-1.515625 0q0 -1.03125 -0.65625 -1.609375q-0.65625 -0.59375 -1.84375 -0.59375q-1.109375 0 -1.734375 0.484375q-0.625 0.484375 -0.625 1.359375q0 0.6875 0.59375 1.171875q0.59375 0.484375 2.0 0.890625q1.421875 0.390625 2.21875 0.875q0.8125 0.46875 1.1875 1.109375q0.390625 0.640625 0.390625 1.515625q0 1.375 -1.078125 2.21875q-1.078125 0.828125 -2.875 0.828125q-1.171875 0 -2.1875 -0.453125q-1.015625 -0.453125 -1.578125 -1.234375q-0.546875 -0.78125 -0.546875 -1.765625l1.515625 0q0 1.03125 0.75 1.625q0.765625 0.59375 2.046875 0.59375q1.1875 0 1.8125 -0.484375q0.640625 -0.484375 0.640625 -1.3125q0 -0.84375 -0.59375 -1.296875q-0.578125 -0.453125 -2.125 -0.90625zm6.1484375 5.078125l0 -11.375l3.203125 0q1.484375 0 2.625 0.65625q1.140625 0.65625 1.765625 1.875q0.625 1.203125 0.625 2.765625l0 0.734375q0 1.609375 -0.625 2.828125q-0.609375 1.203125 -1.765625 1.859375q-1.15625 0.640625 -2.6875 0.65625l-3.140625 0zm1.5 -10.140625l0 8.90625l1.578125 0q1.734375 0 2.6875 -1.078125q0.96875 -1.078125 0.96875 -3.0625l0 -0.671875q0 -1.9375 -0.90625 -3.0q-0.90625 -1.078125 -2.578125 -1.09375l-1.75 0zm11.8828125 4.84375l-1.390625 1.453125l0 3.84375l-1.5 0l0 -11.375l1.5 0l0 5.625l5.046875 -5.625l1.8125 0l-4.46875 5.015625l4.828125 6.359375l-1.796875 0l-4.03125 -5.296875z" fill-rule="nonzero"/><path fill="#00ffcc" d="m297.65128 139.35434l126.96063 0l0 52.81891l-126.96063 0z" fill-rule="evenodd"/><path stroke="#666666" stroke-width="1.0" stroke-linejoin="round" stroke-linecap="butt" d="m297.65128 139.35434l126.96063 0l0 52.81891l-126.96063 0z" fill-rule="evenodd"/><path fill="#000000" d="m342.18628 168.01442q-0.203125 1.796875 -1.328125 2.78125q-1.125 0.984375 -2.984375 0.984375q-2.015625 0 -3.234375 -1.4375q-1.203125 -1.453125 -1.203125 -3.875l0 -1.09375q0 -1.59375 0.5625 -2.796875q0.5625 -1.203125 1.59375 -1.84375q1.046875 -0.640625 2.421875 -0.640625q1.8125 0 2.90625 1.015625q1.09375 1.0 1.265625 2.796875l-1.5 0q-0.203125 -1.359375 -0.859375 -1.96875q-0.640625 -0.609375 -1.8125 -0.609375q-1.4375 0 -2.265625 1.0625q-0.8125 1.0625 -0.8125 3.015625l0 1.109375q0 1.84375 0.765625 2.9375q0.78125 1.09375 2.171875 1.09375q1.25 0 1.921875 -0.5625q0.671875 -0.5625 0.890625 -1.96875l1.5 0zm5.9609375 -2.5l3.171875 0l0 1.375l-3.171875 0l0 3.59375l-1.453125 0l0 -3.59375l-3.171875 0l0 -1.375l3.171875 0l0 -3.3125l1.453125 0l0 3.3125zm9.0703125 0l3.171875 0l0 1.375l-3.171875 0l0 3.59375l-1.453125 0l0 -3.59375l-3.171875 0l0 -1.375l3.171875 0l0 -3.3125l1.453125 0l0 3.3125zm15.40625 3.140625l-4.765625 0l-1.078125 2.96875l-1.546875 0l4.34375 -11.375l1.3125 0l4.359375 11.375l-1.546875 0l-1.078125 -2.96875zm-4.3125 -1.234375l3.859375 0l-1.9375 -5.328125l-1.921875 5.328125zm8.46875 4.203125l0 -11.375l3.71875 0q1.84375 0 2.78125 0.765625q0.9375 0.765625 0.9375 2.265625q0 0.796875 -0.453125 1.40625q-0.453125 0.609375 -1.234375 0.953125q0.921875 0.25 1.453125 0.984375q0.53125 0.71875 0.53125 1.71875q0 1.53125 -1.0 2.40625q-0.984375 0.875 -2.796875 0.875l-3.9375 0zm1.5 -5.328125l0 4.09375l2.46875 0q1.046875 0 1.65625 -0.53125q0.609375 -0.546875 0.609375 -1.5q0 -2.0625 -2.234375 -2.0625l-2.5 0zm0 -1.203125l2.265625 0q0.984375 0 1.5625 -0.484375q0.59375 -0.5 0.59375 -1.34375q0 -0.9375 -0.546875 -1.359375q-0.546875 -0.421875 -1.65625 -0.421875l-2.21875 0l0 3.609375zm10.0703125 6.53125l-1.5 0l0 -11.375l1.5 0l0 11.375z" fill-rule="nonzero"/><path fill="#b4a7d6" d="m297.65128 86.519684l126.96063 0l0 52.818893l-126.96063 0z" fill-rule="evenodd"/><path stroke="#666666" stroke-width="1.0" stroke-linejoin="round" stroke-linecap="butt" d="m297.65128 86.519684l126.96063 0l0 52.818893l-126.96063 0z" fill-rule="evenodd"/><path fill="#000000" d="m339.55347 115.179756q-0.203125 1.796875 -1.328125 2.78125q-1.125 0.984375 -2.984375 0.984375q-2.015625 0 -3.234375 -1.4375q-1.203125 -1.453125 -1.203125 -3.875l0 -1.09375q0 -1.59375 0.5625 -2.796875q0.5625 -1.203125 1.59375 -1.84375q1.046875 -0.640625 2.421875 -0.640625q1.8125 0 2.90625 1.015625q1.09375 1.0 1.265625 2.796875l-1.5 0q-0.203125 -1.359375 -0.859375 -1.96875q-0.640625 -0.609375 -1.8125 -0.609375q-1.4375 0 -2.265625 1.0625q-0.8125 1.0625 -0.8125 3.015625l0 1.109375q0 1.84375 0.765625 2.9375q0.78125 1.09375 2.171875 1.09375q1.25 0 1.921875 -0.5625q0.671875 -0.5625 0.890625 -1.96875l1.5 0zm5.9609375 -2.5l3.171875 0l0 1.375l-3.171875 0l0 3.59375l-1.453125 0l0 -3.59375l-3.171875 0l0 -1.375l3.171875 0l0 -3.3125l1.453125 0l0 3.3125zm9.0703125 0l3.171875 0l0 1.375l-3.171875 0l0 3.59375l-1.453125 0l0 -3.59375l-3.171875 0l0 -1.375l3.171875 0l0 -3.3125l1.453125 0l0 3.3125zm12.46875 1.03125q-1.921875 -0.546875 -2.8125 -1.359375q-0.875 -0.8125 -0.875 -2.0q0 -1.34375 1.078125 -2.21875q1.078125 -0.875 2.796875 -0.875q1.171875 0 2.078125 0.453125q0.921875 0.453125 1.421875 1.25q0.515625 0.796875 0.515625 1.734375l-1.515625 0q0 -1.03125 -0.65625 -1.609375q-0.65625 -0.59375 -1.84375 -0.59375q-1.109375 0 -1.734375 0.484375q-0.625 0.484375 -0.625 1.359375q0 0.6875 0.59375 1.171875q0.59375 0.484375 2.0 0.890625q1.421875 0.390625 2.21875 0.875q0.8125 0.46875 1.1875 1.109375q0.390625 0.640625 0.390625 1.515625q0 1.375 -1.078125 2.21875q-1.078125 0.828125 -2.875 0.828125q-1.171875 0 -2.1875 -0.453125q-1.015625 -0.453125 -1.578125 -1.234375q-0.546875 -0.78125 -0.546875 -1.765625l1.515625 0q0 1.03125 0.75 1.625q0.765625 0.59375 2.046875 0.59375q1.1875 0 1.8125 -0.484375q0.640625 -0.484375 0.640625 -1.3125q0 -0.84375 -0.59375 -1.296875q-0.578125 -0.453125 -2.125 -0.90625zm6.1484375 5.078125l0 -11.375l3.203125 0q1.484375 0 2.625 0.65625q1.140625 0.65625 1.765625 1.875q0.625 1.203125 0.625 2.765625l0 0.734375q0 1.609375 -0.625 2.828125q-0.609375 1.203125 -1.765625 1.859375q-1.15625 0.640625 -2.6875 0.65625l-3.140625 0zm1.5 -10.140625l0 8.90625l1.578125 0q1.734375 0 2.6875 -1.078125q0.96875 -1.078125 0.96875 -3.0625l0 -0.671875q0 -1.9375 -0.90625 -3.0q-0.90625 -1.078125 -2.578125 -1.09375l-1.75 0zm11.8828125 4.84375l-1.390625 1.453125l0 3.84375l-1.5 0l0 -11.375l1.5 0l0 5.625l5.046875 -5.625l1.8125 0l-4.46875 5.015625l4.828125 6.359375l-1.796875 0l-4.03125 -5.296875z" fill-rule="nonzero"/><path fill="#009639" d="m131.74803 289.89935l217.92125 0l0 52.81891l-217.92125 0z" fill-rule="evenodd"/><path stroke="#666666" stroke-width="1.0" stroke-linejoin="round" stroke-linecap="butt" d="m131.74803 289.89935l217.92125 0l0 52.81891l-217.92125 0z" fill-rule="evenodd"/><path fill="#000000" d="m230.25945 322.16882l-1.5 0l-5.734375 -8.765625l0 8.765625l-1.5 0l0 -11.375l1.5 0l5.75 8.796875l0 -8.796875l1.484375 0l0 11.375zm2.09375 -4.296875q0 -1.984375 0.90625 -3.140625q0.921875 -1.171875 2.4375 -1.171875q1.546875 0 2.40625 1.09375l0.078125 -0.9375l1.3125 0l0 8.25q0 1.640625 -0.96875 2.578125q-0.96875 0.953125 -2.609375 0.953125q-0.921875 0 -1.796875 -0.390625q-0.875 -0.390625 -1.328125 -1.0625l0.75 -0.875q0.921875 1.15625 2.265625 1.15625q1.0625 0 1.640625 -0.59375q0.59375 -0.59375 0.59375 -1.6875l0 -0.71875q-0.859375 1.0 -2.359375 1.0q-1.484375 0 -2.40625 -1.1875q-0.921875 -1.203125 -0.921875 -3.265625zm1.453125 0.15625q0 1.4375 0.578125 2.25q0.59375 0.8125 1.65625 0.8125q1.359375 0 2.0 -1.234375l0 -3.859375q-0.65625 -1.21875 -1.984375 -1.21875q-1.0625 0 -1.65625 0.828125q-0.59375 0.8125 -0.59375 2.421875zm9.4453125 4.140625l-1.453125 0l0 -8.453125l1.453125 0l0 8.453125zm-1.5625 -10.703125q0 -0.34375 0.203125 -0.578125q0.21875 -0.25 0.640625 -0.25q0.421875 0 0.640625 0.25q0.21875 0.234375 0.21875 0.59375q0 0.34375 -0.21875 0.578125q-0.21875 0.234375 -0.640625 0.234375q-0.421875 0 -0.640625 -0.234375q-0.203125 -0.234375 -0.203125 -0.59375zm5.2421875 2.25l0.046875 1.0625q0.96875 -1.21875 2.53125 -1.21875q2.671875 0 2.703125 3.015625l0 5.59375l-1.453125 0l0 -5.59375q0 -0.921875 -0.421875 -1.359375q-0.40625 -0.4375 -1.265625 -0.4375q-0.703125 0 -1.234375 0.375q-0.53125 0.375 -0.828125 0.984375l0 6.03125l-1.453125 0l0 -8.453125l1.375 0zm10.29686 3.078125l1.875 -3.078125l1.6875 0l-2.765625 4.171875l2.84375 4.28125l-1.671875 0l-1.953125 -3.171875l-1.9531097 3.171875l-1.671875 0l2.8437347 -4.28125l-2.7656097 -4.171875l1.671875 0l1.8593597 3.078125z" fill-rule="nonzero"/><path fill="#ff8200" d="m131.74803 237.06026l217.92125 0l0 52.818893l-217.92125 0z" fill-rule="evenodd"/><path stroke="#666666" stroke-width="1.0" stroke-linejoin="round" stroke-linecap="butt" d="m131.74803 237.06026l217.92125 0l0 52.818893l-217.92125 0z" fill-rule="evenodd"/><path fill="#000000" d="m174.9157 260.8766l0.046875 1.0625q0.96875 -1.21875 2.53125 -1.21875q2.671875 0 2.703125 3.015625l0 5.59375l-1.453125 0l0 -5.59375q0 -0.921875 -0.421875 -1.359375q-0.40625 -0.4375 -1.265625 -0.4375q-0.703125 0 -1.234375 0.375q-0.53125 0.375 -0.828125 0.984375l0 6.03125l-1.453125 0l0 -8.453125l1.375 0zm7.109375 4.15625q0 -1.984375 0.90625 -3.140625q0.921875 -1.171875 2.4375 -1.171875q1.546875 0 2.40625 1.09375l0.078125 -0.9375l1.3125 0l0 8.25q0 1.640625 -0.96875 2.578125q-0.96875 0.953125 -2.609375 0.953125q-0.921875 0 -1.796875 -0.390625q-0.875 -0.390625 -1.328125 -1.0625l0.75 -0.875q0.921875 1.15625 2.265625 1.15625q1.0625 0 1.640625 -0.59375q0.59375 -0.59375 0.59375 -1.6875l0 -0.71875q-0.859375 1.0 -2.359375 1.0q-1.484375 0 -2.40625 -1.1875q-0.921875 -1.203125 -0.921875 -3.265625zm1.453125 0.15625q0 1.4375 0.578125 2.25q0.59375 0.8125 1.65625 0.8125q1.359375 0 2.0 -1.234375l0 -3.859375q-0.65625 -1.21875 -1.984375 -1.21875q-1.0625 0 -1.65625 0.828125q-0.59375 0.8125 -0.59375 2.421875zm10.7109375 -1.234375l1.875 -3.078125l1.6875 0l-2.765625 4.171875l2.84375 4.28125l-1.671875 0l-1.953125 -3.171875l-1.953125 3.171875l-1.671875 0l2.84375 -4.28125l-2.765625 -4.171875l1.671875 0l1.859375 3.078125zm11.1796875 6.5625l-7.15625 0l0 -1.1875l7.15625 0l0 1.1875zm8.609375 -3.1875l1.625 -6.453125l1.453125 0l-2.46875 8.453125l-1.171875 0l-2.046875 -6.40625l-2.0 6.40625l-1.171875 0l-2.453125 -8.453125l1.4375 0l1.65625 6.328125l1.96875 -6.328125l1.171875 0l2.0 6.453125zm9.7578125 2.0q-0.125 -0.25 -0.203125 -0.890625q-1.0 1.046875 -2.40625 1.046875q-1.25 0 -2.046875 -0.703125q-0.796875 -0.71875 -0.796875 -1.796875q0 -1.328125 1.0 -2.046875q1.0 -0.734375 2.828125 -0.734375l1.40625 0l0 -0.671875q0 -0.75 -0.453125 -1.203125q-0.453125 -0.453125 -1.34375 -0.453125q-0.765625 0 -1.296875 0.390625q-0.515625 0.390625 -0.515625 0.953125l-1.453125 0q0 -0.640625 0.4375 -1.21875q0.453125 -0.59375 1.21875 -0.9375q0.78125 -0.34375 1.703125 -0.34375q1.453125 0 2.28125 0.734375q0.828125 0.71875 0.859375 2.0l0 3.890625q0 1.171875 0.296875 1.859375l0 0.125l-1.515625 0zm-2.390625 -1.109375q0.671875 0 1.28125 -0.34375q0.609375 -0.359375 0.890625 -0.921875l0 -1.734375l-1.140625 0q-2.65625 0 -2.65625 1.5625q0 0.671875 0.453125 1.0625q0.453125 0.375 1.171875 0.375zm10.796875 -1.140625q0 -0.578125 -0.4375 -0.90625q-0.4375 -0.328125 -1.546875 -0.5625q-1.09375 -0.234375 -1.734375 -0.5625q-0.640625 -0.328125 -0.953125 -0.78125q-0.3125 -0.453125 -0.3125 -1.078125q0 -1.03125 0.875 -1.75q0.890625 -0.71875 2.25 -0.71875q1.4375 0 2.328125 0.75q0.90625 0.734375 0.90625 1.890625l-1.453125 0q0 -0.59375 -0.515625 -1.015625q-0.5 -0.4375 -1.265625 -0.4375q-0.78125 0 -1.234375 0.34375q-0.4375 0.34375 -0.4375 0.890625q0 0.53125 0.40625 0.796875q0.421875 0.265625 1.5 0.515625q1.078125 0.234375 1.75 0.578125q0.671875 0.328125 1.0 0.796875q0.328125 0.46875 0.328125 1.15625q0 1.125 -0.90625 1.8125q-0.90625 0.6875 -2.359375 0.6875q-1.015625 0 -1.796875 -0.359375q-0.78125 -0.359375 -1.21875 -1.0q-0.4375 -0.65625 -0.4375 -1.40625l1.4375 0q0.046875 0.734375 0.578125 1.15625q0.546875 0.421875 1.4375 0.421875q0.828125 0 1.3125 -0.328125q0.5 -0.328125 0.5 -0.890625zm4.6875 -6.203125l0.046875 0.9375q0.921875 -1.09375 2.5 -1.09375q1.78125 0 2.421875 1.359375q0.421875 -0.609375 1.09375 -0.984375q0.671875 -0.375 1.59375 -0.375q2.78125 0 2.828125 2.9375l0 5.671875l-1.4375 0l0 -5.578125q0 -0.90625 -0.421875 -1.359375q-0.40625 -0.453125 -1.390625 -0.453125q-0.796875 0 -1.328125 0.484375q-0.53125 0.484375 -0.625 1.296875l0 5.609375l-1.453125 0l0 -5.546875q0 -1.84375 -1.796875 -1.84375q-1.421875 0 -1.953125 1.21875l0 6.171875l-1.4375 0l0 -8.453125l1.359375 0zm18.757812 9.640625l-7.15625 0l0 -1.1875l7.15625 0l0 1.1875zm2.4843597 -9.640625l0.046875 0.9375q0.921875 -1.09375 2.5 -1.09375q1.78125 0 2.421875 1.359375q0.421875 -0.609375 1.09375 -0.984375q0.671875 -0.375 1.59375 -0.375q2.78125 0 2.828125 2.9375l0 5.671875l-1.4375 0l0 -5.578125q0 -0.90625 -0.421875 -1.359375q-0.40625 -0.453125 -1.390625 -0.453125q-0.796875 0 -1.328125 0.484375q-0.53125 0.484375 -0.625 1.296875l0 5.609375l-1.453125 0l0 -5.546875q0 -1.84375 -1.796875 -1.84375q-1.421875 0 -1.953125 1.21875l0 6.171875l-1.4375 0l0 -8.453125l1.359375 0zm12.2890625 4.140625q0 -1.234375 0.484375 -2.21875q0.484375 -1.0 1.359375 -1.53125q0.875 -0.546875 1.984375 -0.546875q1.734375 0 2.796875 1.203125q1.0625 1.1875 1.0625 3.171875l0 0.09375q0 1.234375 -0.46875 2.21875q-0.46875 0.984375 -1.359375 1.53125q-0.875 0.546875 -2.015625 0.546875q-1.71875 0 -2.78125 -1.1875q-1.0625 -1.203125 -1.0625 -3.171875l0 -0.109375zm1.453125 0.171875q0 1.40625 0.640625 2.265625q0.65625 0.84375 1.75 0.84375q1.109375 0 1.75 -0.859375q0.65625 -0.859375 0.65625 -2.421875q0 -1.390625 -0.671875 -2.25q-0.65625 -0.859375 -1.75 -0.859375q-1.0625 0 -1.71875 0.859375q-0.65625 0.84375 -0.65625 2.421875zm7.703125 -0.15625q0 -1.953125 0.921875 -3.125q0.921875 -1.1875 2.40625 -1.1875q1.484375 0 2.359375 1.015625l0 -4.40625l1.4375 0l0 12.0l-1.328125 0l-0.0625 -0.90625q-0.875 1.0625 -2.421875 1.0625q-1.46875 0 -2.390625 -1.203125q-0.921875 -1.203125 -0.921875 -3.140625l0 -0.109375zm1.4375 0.15625q0 1.4375 0.59375 2.25q0.59375 0.8125 1.640625 0.8125q1.375 0 2.015625 -1.234375l0 -3.875q-0.65625 -1.203125 -2.0 -1.203125q-1.0625 0 -1.65625 0.828125q-0.59375 0.8125 -0.59375 2.421875zm13.1484375 3.296875q-0.84375 1.0 -2.46875 1.0q-1.359375 0 -2.0625 -0.78125q-0.703125 -0.796875 -0.71875 -2.328125l0 -5.5l1.453125 0l0 5.453125q0 1.921875 1.5625 1.921875q1.65625 0 2.203125 -1.234375l0 -6.140625l1.4375 0l0 8.453125l-1.375 0l-0.03125 -0.84375zm5.1796875 0.84375l-1.453125 0l0 -12.0l1.453125 0l0 12.0zm5.8203125 0.15625q-1.71875 0 -2.796875 -1.125q-1.078125 -1.140625 -1.078125 -3.03125l0 -0.265625q0 -1.25 0.46875 -2.234375q0.484375 -1.0 1.34375 -1.546875q0.875 -0.5625 1.875 -0.5625q1.65625 0 2.5625 1.09375q0.921875 1.078125 0.921875 3.09375l0 0.609375l-5.734375 0q0.03125 1.25 0.734375 2.015625q0.703125 0.765625 1.78125 0.765625q0.765625 0 1.296875 -0.3125q0.53125 -0.3125 0.921875 -0.828125l0.890625 0.6875q-1.0625 1.640625 -3.1875 1.640625zm-0.1875 -7.578125q-0.875 0 -1.46875 0.640625q-0.59375 0.625 -0.734375 1.78125l4.234375 0l0 -0.109375q-0.0625 -1.109375 -0.59375 -1.703125q-0.53125 -0.609375 -1.4375 -0.609375z" fill-rule="nonzero"/><path fill="#00ffcc" d="m463.54855 139.35434l126.96066 0l0 52.81891l-126.96066 0z" fill-rule="evenodd"/><path stroke="#666666" stroke-width="1.0" stroke-linejoin="round" stroke-linecap="butt" d="m463.54855 139.35434l126.96066 0l0 52.81891l-126.96066 0z" fill-rule="evenodd"/><path fill="#000000" d="m512.38043 170.1238q-0.578125 0.828125 -1.609375 1.25q-1.03125 0.40625 -2.40625 0.40625q-1.390625 0 -2.46875 -0.65625q-1.078125 -0.65625 -1.671875 -1.859375q-0.59375 -1.203125 -0.609375 -2.78125l0 -1.0q0 -2.5625 1.203125 -3.96875q1.203125 -1.421875 3.375 -1.421875q1.78125 0 2.859375 0.90625q1.09375 0.90625 1.328125 2.578125l-1.5 0q-0.421875 -2.25 -2.6875 -2.25q-1.5 0 -2.28125 1.0625q-0.78125 1.046875 -0.78125 3.0625l0 0.921875q0 1.921875 0.875 3.046875q0.875 1.125 2.359375 1.125q0.84375 0 1.46875 -0.1875q0.640625 -0.1875 1.0625 -0.625l0 -2.5625l-2.640625 0l0 -1.21875l4.125 0l0 4.171875zm1.8984375 -2.8125q0 -1.234375 0.484375 -2.21875q0.484375 -1.0 1.359375 -1.53125q0.875 -0.546875 1.984375 -0.546875q1.734375 0 2.796875 1.203125q1.0625 1.1875 1.0625 3.171875l0 0.09375q0 1.234375 -0.46875 2.21875q-0.46875 0.984375 -1.359375 1.53125q-0.875 0.546875 -2.015625 0.546875q-1.71875 0 -2.78125 -1.1875q-1.0625 -1.203125 -1.0625 -3.171875l0 -0.109375zm1.453125 0.171875q0 1.40625 0.640625 2.265625q0.65625 0.84375 1.75 0.84375q1.109375 0 1.75 -0.859375q0.65625 -0.859375 0.65625 -2.421875q0 -1.390625 -0.671875 -2.25q-0.65625 -0.859375 -1.75 -0.859375q-1.0625 0 -1.71875 0.859375q-0.65625 0.84375 -0.65625 2.421875zm18.523438 1.171875l-4.765625 0l-1.078125 2.96875l-1.546875 0l4.34375 -11.375l1.3125 0l4.359375 11.375l-1.546875 0l-1.078125 -2.96875zm-4.3125 -1.234375l3.859375 0l-1.9375 -5.328125l-1.921875 5.328125zm8.46875 4.203125l0 -11.375l3.71875 0q1.84375 0 2.78125 0.765625q0.9375 0.765625 0.9375 2.265625q0 0.796875 -0.453125 1.40625q-0.453125 0.609375 -1.234375 0.953125q0.921875 0.25 1.453125 0.984375q0.53125 0.71875 0.53125 1.71875q0 1.53125 -1.0 2.40625q-0.984375 0.875 -2.796875 0.875l-3.9375 0zm1.5 -5.328125l0 4.09375l2.46875 0q1.046875 0 1.65625 -0.53125q0.609375 -0.546875 0.609375 -1.5q0 -2.0625 -2.234375 -2.0625l-2.5 0zm0 -1.203125l2.265625 0q0.984375 0 1.5625 -0.484375q0.59375 -0.5 0.59375 -1.34375q0 -0.9375 -0.546875 -1.359375q-0.546875 -0.421875 -1.65625 -0.421875l-2.21875 0l0 3.609375zm10.0703125 6.53125l-1.5 0l0 -11.375l1.5 0l0 11.375z" fill-rule="nonzero"/><path fill="#d9d2e9" d="m463.54855 86.519684l126.96066 0l0 52.818893l-126.96066 0z" fill-rule="evenodd"/><path stroke="#666666" stroke-width="1.0" stroke-linejoin="round" stroke-linecap="butt" d="m463.54855 86.519684l126.96066 0l0 52.818893l-126.96066 0z" fill-rule="evenodd"/><path fill="#000000" d="m509.74762 117.28913q-0.578125 0.828125 -1.609375 1.25q-1.03125 0.40625 -2.40625 0.40625q-1.390625 0 -2.46875 -0.65625q-1.078125 -0.65625 -1.671875 -1.859375q-0.59375 -1.203125 -0.609375 -2.78125l0 -1.0q0 -2.5625 1.203125 -3.96875q1.203125 -1.421875 3.375 -1.421875q1.78125 0 2.859375 0.90625q1.09375 0.90625 1.328125 2.578125l-1.5 0q-0.421875 -2.25 -2.6875 -2.25q-1.5 0 -2.28125 1.0625q-0.78125 1.046875 -0.78125 3.0625l0 0.921875q0 1.921875 0.875 3.046875q0.875 1.125 2.359375 1.125q0.84375 0 1.46875 -0.1875q0.640625 -0.1875 1.0625 -0.625l0 -2.5625l-2.640625 0l0 -1.21875l4.125 0l0 4.171875zm1.8984375 -2.8125q0 -1.234375 0.484375 -2.21875q0.484375 -1.0 1.359375 -1.53125q0.875 -0.546875 1.984375 -0.546875q1.734375 0 2.796875 1.203125q1.0625 1.1875 1.0625 3.171875l0 0.09375q0 1.234375 -0.46875 2.21875q-0.46875 0.984375 -1.359375 1.53125q-0.875 0.546875 -2.015625 0.546875q-1.71875 0 -2.78125 -1.1875q-1.0625 -1.203125 -1.0625 -3.171875l0 -0.109375zm1.453125 0.171875q0 1.40625 0.640625 2.265625q0.65625 0.84375 1.75 0.84375q1.109375 0 1.75 -0.859375q0.65625 -0.859375 0.65625 -2.421875q0 -1.390625 -0.671875 -2.25q-0.65625 -0.859375 -1.75 -0.859375q-1.0625 0 -1.71875 0.859375q-0.65625 0.84375 -0.65625 2.421875zm15.5859375 -0.9375q-1.921875 -0.546875 -2.8125 -1.359375q-0.875 -0.8125 -0.875 -2.0q0 -1.34375 1.078125 -2.21875q1.078125 -0.875 2.796875 -0.875q1.171875 0 2.078125 0.453125q0.921875 0.453125 1.421875 1.25q0.515625 0.796875 0.515625 1.734375l-1.515625 0q0 -1.03125 -0.65625 -1.609375q-0.65625 -0.59375 -1.84375 -0.59375q-1.109375 0 -1.734375 0.484375q-0.625 0.484375 -0.625 1.359375q0 0.6875 0.59375 1.171875q0.59375 0.484375 2.0 0.890625q1.421875 0.390625 2.21875 0.875q0.8125 0.46875 1.1875 1.109375q0.390625 0.640625 0.390625 1.515625q0 1.375 -1.078125 2.21875q-1.078125 0.828125 -2.875 0.828125q-1.171875 0 -2.1875 -0.453125q-1.015625 -0.453125 -1.578125 -1.234375q-0.546875 -0.78125 -0.546875 -1.765625l1.515625 0q0 1.03125 0.75 1.625q0.765625 0.59375 2.046875 0.59375q1.1875 0 1.8125 -0.484375q0.640625 -0.484375 0.640625 -1.3125q0 -0.84375 -0.59375 -1.296875q-0.578125 -0.453125 -2.125 -0.90625zm6.1484375 5.078125l0 -11.375l3.203125 0q1.484375 0 2.625 0.65625q1.140625 0.65625 1.765625 1.875q0.625 1.203125 0.625 2.765625l0 0.734375q0 1.609375 -0.625 2.828125q-0.609375 1.203125 -1.765625 1.859375q-1.15625 0.640625 -2.6875 0.65625l-3.140625 0zm1.5 -10.140625l0 8.90625l1.578125 0q1.734375 0 2.6875 -1.078125q0.96875 -1.078125 0.96875 -3.0625l0 -0.671875q0 -1.9375 -0.90625 -3.0q-0.90625 -1.078125 -2.578125 -1.09375l-1.75 0zm11.8828125 4.84375l-1.390625 1.453125l0 3.84375l-1.5 0l0 -11.375l1.5 0l0 5.625l5.046875 -5.625l1.8125 0l-4.46875 5.015625l4.828125 6.359375l-1.796875 0l-4.03125 -5.296875z" fill-rule="nonzero"/><path fill="#c400b1" d="m372.58267 289.89935l217.9213 0l0 52.81891l-217.9213 0z" fill-rule="evenodd"/><path stroke="#666666" stroke-width="1.0" stroke-linejoin="round" stroke-linecap="butt" d="m372.58267 289.89935l217.9213 0l0 52.81891l-217.9213 0z" fill-rule="evenodd"/><path fill="#000000" d="m468.2269 316.9032l-4.921875 0l0 4.03125l5.71875 0l0 1.234375l-7.21875 0l0 -11.375l7.140625 0l0 1.234375l-5.640625 0l0 3.65625l4.921875 0l0 1.21875zm3.8125 -3.1875l0.046875 1.0625q0.96875 -1.21875 2.53125 -1.21875q2.671875 0 2.703125 3.015625l0 5.59375l-1.453125 0l0 -5.59375q0 -0.921875 -0.421875 -1.359375q-0.40625 -0.4375 -1.265625 -0.4375q-0.703125 0 -1.234375 0.375q-0.53125 0.375 -0.828125 0.984375l0 6.03125l-1.453125 0l0 -8.453125l1.375 0zm10.25 6.484375l2.09375 -6.484375l1.46875 0l-3.03125 8.453125l-1.09375 0l-3.0625 -8.453125l1.46875 0l2.15625 6.484375zm4.4609375 -2.34375q0 -1.234375 0.484375 -2.21875q0.484375 -1.0 1.359375 -1.53125q0.875 -0.546875 1.984375 -0.546875q1.734375 0 2.796875 1.203125q1.0625 1.1875 1.0625 3.171875l0 0.09375q0 1.234375 -0.46875 2.21875q-0.46875 0.984375 -1.359375 1.53125q-0.875 0.546875 -2.015625 0.546875q-1.71875 0 -2.78125 -1.1875q-1.0625 -1.203125 -1.0625 -3.171875l0 -0.109375zm1.453125 0.171875q0 1.40625 0.640625 2.265625q0.65625 0.84375 1.75 0.84375q1.109375 0 1.75 -0.859375q0.65625 -0.859375 0.65625 -2.421875q0 -1.390625 -0.671875 -2.25q-0.65625 -0.859375 -1.75 -0.859375q-1.0625 0 -1.71875 0.859375q-0.65625 0.84375 -0.65625 2.421875zm10.6953125 2.015625l1.96875 -6.328125l1.546875 0l-3.390625 9.765625q-0.796875 2.109375 -2.515625 2.109375l-0.265625 -0.03125l-0.546875 -0.09375l0 -1.171875l0.390625 0.03125q0.734375 0 1.140625 -0.296875q0.421875 -0.296875 0.6875 -1.09375l0.3125 -0.859375l-3.015625 -8.359375l1.578125 0l2.109375 6.328125z" fill-rule="nonzero"/><path fill="#f525b3" d="m372.58267 237.06026l217.9213 0l0 52.818893l-217.9213 0z" fill-rule="evenodd"/><path stroke="#666666" stroke-width="1.0" stroke-linejoin="round" stroke-linecap="butt" d="m372.58267 237.06026l217.9213 0l0 52.818893l-217.9213 0z" fill-rule="evenodd"/><path fill="#000000" d="m426.06674 265.73596l0.21875 1.5l0.3125 -1.34375l2.25 -7.9375l1.265625 0l2.203125 7.9375l0.3125 1.375l0.234375 -1.53125l1.765625 -7.78125l1.515625 0l-2.765625 11.375l-1.359375 0l-2.34375 -8.296875l-0.1875 -0.859375l-0.171875 0.859375l-2.4375 8.296875l-1.359375 0l-2.75 -11.375l1.5 0l1.796875 7.78125zm16.46875 3.59375q-0.125 -0.25 -0.203125 -0.890625q-1.0 1.046875 -2.40625 1.046875q-1.25 0 -2.046875 -0.703125q-0.796875 -0.71875 -0.796875 -1.796875q0 -1.328125 1.0 -2.046875q1.0 -0.734375 2.828125 -0.734375l1.40625 0l0 -0.671875q0 -0.75 -0.453125 -1.203125q-0.453125 -0.453125 -1.34375 -0.453125q-0.765625 0 -1.296875 0.390625q-0.515625 0.390625 -0.515625 0.953125l-1.453125 0q0 -0.640625 0.4375 -1.21875q0.453125 -0.59375 1.21875 -0.9375q0.78125 -0.34375 1.703125 -0.34375q1.453125 0 2.28125 0.734375q0.828125 0.71875 0.859375 2.0l0 3.890625q0 1.171875 0.296875 1.859375l0 0.125l-1.515625 0zm-2.390625 -1.109375q0.671875 0 1.28125 -0.34375q0.609375 -0.359375 0.890625 -0.921875l0 -1.734375l-1.140625 0q-2.65625 0 -2.65625 1.5625q0 0.671875 0.453125 1.0625q0.453125 0.375 1.171875 0.375zm10.796875 -1.140625q0 -0.578125 -0.4375 -0.90625q-0.4375 -0.328125 -1.546875 -0.5625q-1.09375 -0.234375 -1.734375 -0.5625q-0.640625 -0.328125 -0.953125 -0.78125q-0.3125 -0.453125 -0.3125 -1.078125q0 -1.03125 0.875 -1.75q0.890625 -0.71875 2.25 -0.71875q1.4375 0 2.328125 0.75q0.90625 0.734375 0.90625 1.890625l-1.453125 0q0 -0.59375 -0.515625 -1.015625q-0.5 -0.4375 -1.265625 -0.4375q-0.78125 0 -1.234375 0.34375q-0.4375 0.34375 -0.4375 0.890625q0 0.53125 0.40625 0.796875q0.421875 0.265625 1.5 0.515625q1.078125 0.234375 1.75 0.578125q0.671875 0.328125 1.0 0.796875q0.328125 0.46875 0.328125 1.15625q0 1.125 -0.90625 1.8125q-0.90625 0.6875 -2.359375 0.6875q-1.015625 0 -1.796875 -0.359375q-0.78125 -0.359375 -1.21875 -1.0q-0.4375 -0.65625 -0.4375 -1.40625l1.4375 0q0.046875 0.734375 0.578125 1.15625q0.546875 0.421875 1.4375 0.421875q0.828125 0 1.3125 -0.328125q0.5 -0.328125 0.5 -0.890625zm4.6875 -6.203125l0.046875 0.9375q0.921875 -1.09375 2.5 -1.09375q1.78125 0 2.421875 1.359375q0.421875 -0.609375 1.09375 -0.984375q0.671875 -0.375 1.59375 -0.375q2.78125 0 2.828125 2.9375l0 5.671875l-1.4375 0l0 -5.578125q0 -0.90625 -0.421875 -1.359375q-0.40625 -0.453125 -1.390625 -0.453125q-0.796875 0 -1.328125 0.484375q-0.53125 0.484375 -0.625 1.296875l0 5.609375l-1.453125 0l0 -5.546875q0 -1.84375 -1.796875 -1.84375q-1.421875 0 -1.953125 1.21875l0 6.171875l-1.4375 0l0 -8.453125l1.359375 0zm23.28125 3.1875l-4.921875 0l0 4.03125l5.71875 0l0 1.234375l-7.21875 0l0 -11.375l7.140625 0l0 1.234375l-5.640625 0l0 3.65625l4.921875 0l0 1.21875zm5.28125 -0.109375l1.875 -3.078125l1.6875 0l-2.765625 4.171875l2.84375 4.28125l-1.671875 0l-1.953125 -3.171875l-1.953125 3.171875l-1.671875 0l2.84375 -4.28125l-2.765625 -4.171875l1.671875 0l1.859375 3.078125zm7.0546875 -5.125l0 2.046875l1.578125 0l0 1.109375l-1.578125 0l0 5.25q0 0.5 0.203125 0.765625q0.21875 0.25 0.71875 0.25q0.25 0 0.6875 -0.09375l0 1.171875q-0.5625 0.15625 -1.109375 0.15625q-0.96875 0 -1.46875 -0.578125q-0.484375 -0.59375 -0.484375 -1.671875l0 -5.25l-1.53125 0l0 -1.109375l1.53125 0l0 -2.046875l1.453125 0zm6.7734375 10.65625q-1.71875 0 -2.796875 -1.125q-1.078125 -1.140625 -1.078125 -3.03125l0 -0.265625q0 -1.25 0.46875 -2.234375q0.484375 -1.0 1.34375 -1.546875q0.875 -0.5625 1.875 -0.5625q1.65625 0 2.5625 1.09375q0.921875 1.078125 0.921875 3.09375l0 0.609375l-5.734375 0q0.03125 1.25 0.734375 2.015625q0.703125 0.765625 1.78125 0.765625q0.765625 0 1.296875 -0.3125q0.53125 -0.3125 0.921875 -0.828125l0.890625 0.6875q-1.0625 1.640625 -3.1875 1.640625zm-0.1875 -7.578125q-0.875 0 -1.46875 0.640625q-0.59375 0.625 -0.734375 1.78125l4.234375 0l0 -0.109375q-0.0625 -1.109375 -0.59375 -1.703125q-0.53125 -0.609375 -1.4375 -0.609375zm6.5234375 -1.03125l0.046875 1.0625q0.96875 -1.21875 2.53125 -1.21875q2.671875 0 2.703125 3.015625l0 5.59375l-1.453125 0l0 -5.59375q0 -0.921875 -0.421875 -1.359375q-0.40625 -0.4375 -1.265625 -0.4375q-0.703125 0 -1.234375 0.375q-0.53125 0.375 -0.828125 0.984375l0 6.03125l-1.453125 0l0 -8.453125l1.375 0zm12.3750305 6.203125q0 -0.578125 -0.4375 -0.90625q-0.4375 -0.328125 -1.546875 -0.5625q-1.09375 -0.234375 -1.734375 -0.5625q-0.640625 -0.328125 -0.953125 -0.78125q-0.31253052 -0.453125 -0.31253052 -1.078125q0 -1.03125 0.8750305 -1.75q0.890625 -0.71875 2.25 -0.71875q1.4375 0 2.328125 0.75q0.90625 0.734375 0.90625 1.890625l-1.453125 0q0 -0.59375 -0.515625 -1.015625q-0.5 -0.4375 -1.265625 -0.4375q-0.78125 0 -1.234375 0.34375q-0.4375 0.34375 -0.4375 0.890625q0 0.53125 0.40625 0.796875q0.421875 0.265625 1.5 0.515625q1.078125 0.234375 1.75 0.578125q0.671875 0.328125 1.0 0.796875q0.328125 0.46875 0.328125 1.15625q0 1.125 -0.90625 1.8125q-0.90625 0.6875 -2.359375 0.6875q-1.015625 0 -1.796875 -0.359375q-0.78125 -0.359375 -1.2187805 -1.0q-0.4375 -0.65625 -0.4375 -1.40625l1.4375305 0q0.046875 0.734375 0.578125 1.15625q0.546875 0.421875 1.4375 0.421875q0.828125 0 1.3125 -0.328125q0.5 -0.328125 0.5 -0.890625zm4.90625 2.25l-1.453125 0l0 -8.453125l1.453125 0l0 8.453125zm-1.5625 -10.703125q0 -0.34375 0.203125 -0.578125q0.21875 -0.25 0.640625 -0.25q0.421875 0 0.640625 0.25q0.21875 0.234375 0.21875 0.59375q0 0.34375 -0.21875 0.578125q-0.21875 0.234375 -0.640625 0.234375q-0.421875 0 -0.640625 -0.234375q-0.203125 -0.234375 -0.203125 -0.59375zm3.4921875 6.390625q0 -1.234375 0.484375 -2.21875q0.484375 -1.0 1.359375 -1.53125q0.875 -0.546875 1.984375 -0.546875q1.734375 0 2.796875 1.203125q1.0625 1.1875 1.0625 3.171875l0 0.09375q0 1.234375 -0.46875 2.21875q-0.46875 0.984375 -1.359375 1.53125q-0.875 0.546875 -2.015625 0.546875q-1.71875 0 -2.78125 -1.1875q-1.0625 -1.203125 -1.0625 -3.171875l0 -0.109375zm1.453125 0.171875q0 1.40625 0.640625 2.265625q0.65625 0.84375 1.75 0.84375q1.109375 0 1.75 -0.859375q0.65625 -0.859375 0.65625 -2.421875q0 -1.390625 -0.671875 -2.25q-0.65625 -0.859375 -1.75 -0.859375q-1.0625 0 -1.71875 0.859375q-0.65625 0.84375 -0.65625 2.421875zm9.421875 -4.3125l0.046875 1.0625q0.96875 -1.21875 2.53125 -1.21875q2.671875 0 2.703125 3.015625l0 5.59375l-1.453125 0l0 -5.59375q0 -0.921875 -0.421875 -1.359375q-0.40625 -0.4375 -1.265625 -0.4375q-0.703125 0 -1.234375 0.375q-0.53125 0.375 -0.828125 0.984375l0 6.03125l-1.453125 0l0 -8.453125l1.375 0z" fill-rule="nonzero"/><path fill="#000000" fill-opacity="0.0" d="m-31.937008 298.48557l159.68504 0l0 37.165344l-159.68504 0z" fill-rule="evenodd"/><path fill="#999999" d="m28.885487 317.48743l-0.703125 4.078125l-1.34375 0l1.8125 -10.421875l3.46875 0.015625q1.625 0 2.484375 0.859375q0.875 0.84375 0.765625 2.265625q-0.140625 1.484375 -1.203125 2.34375q-1.0625 0.859375 -2.796875 0.859375l-2.484375 0zm0.203125 -1.125l2.3125 0q1.09375 0 1.796875 -0.546875q0.703125 -0.546875 0.828125 -1.53125q0.109375 -0.875 -0.375 -1.421875q-0.46875 -0.546875 -1.390625 -0.578125l-2.46875 0l-0.703125 4.078125zm11.397873 -1.359375l-0.59375 -0.0625q-1.25 0 -1.96875 1.125l-0.953125 5.5l-1.296875 0l1.34375 -7.75l1.25 0l-0.1875 0.90625q0.828125 -1.078125 1.9375 -1.0625q0.234375 0 0.625 0.109375l-0.15625 1.234375zm4.2217865 -1.328125q0.984375 0.015625 1.671875 0.53125q0.703125 0.515625 1.03125 1.421875q0.328125 0.90625 0.21875 1.984375l-0.015625 0.15625q-0.125 1.125 -0.671875 2.046875q-0.53125 0.90625 -1.390625 1.421875q-0.84375 0.5 -1.859375 0.46875q-0.96875 -0.015625 -1.671875 -0.53125q-0.6875 -0.515625 -1.015625 -1.390625q-0.3125 -0.890625 -0.21875 -1.96875q0.09375 -1.1875 0.640625 -2.140625q0.546875 -0.96875 1.40625 -1.5q0.859375 -0.53125 1.875 -0.5zm-2.625 4.15625q-0.046875 0.453125 0 0.9375q0.0625 0.84375 0.5 1.34375q0.4375 0.5 1.15625 0.515625q0.640625 0.03125 1.1875 -0.3125q0.546875 -0.34375 0.921875 -1.03125q0.375 -0.6875 0.484375 -1.515625q0.046875 -0.65625 0.015625 -1.109375q-0.09375 -0.875 -0.53125 -1.375q-0.421875 -0.5 -1.15625 -0.53125q-1.0 -0.015625 -1.703125 0.796875q-0.703125 0.8125 -0.859375 2.109375l-0.015625 0.171875zm9.685593 -1.1875l2.109375 -2.828125l1.59375 0l-3.109375 3.90625l1.890625 3.84375l-1.421875 0l-1.28125 -2.890625l-2.171875 2.890625l-1.578125 0l3.1875 -3.984375l-1.828125 -3.765625l1.421875 0l1.1875 2.828125zm6.573715 2.96875l2.75 -5.796875l1.4375 0l-4.59375 9.03125q-0.96875 1.890625 -2.46875 1.875q-0.265625 -0.015625 -0.78125 -0.140625l0.125 -1.0625l0.328125 0.03125q0.625 0.03125 1.0625 -0.28125q0.453125 -0.296875 0.796875 -0.984375l0.46875 -0.890625l-1.34375 -7.578125l1.34375 0l0.875 5.796875zm12.297306 -2.265625l-2.40625 0l-0.734375 4.21875l-1.34375 0l1.796875 -10.421875l3.140625 0.015625q1.640625 0 2.5 0.828125q0.859375 0.8125 0.71875 2.234375q-0.078125 0.984375 -0.71875 1.734375q-0.625 0.734375 -1.671875 1.109375l1.609375 4.40625l0 0.09375l-1.4375 0l-1.453125 -4.21875zm-2.21875 -1.125l1.984375 0.015625q1.03125 0 1.734375 -0.546875q0.703125 -0.546875 0.828125 -1.46875q0.109375 -0.890625 -0.359375 -1.390625q-0.46875 -0.515625 -1.421875 -0.546875l-2.078125 0l-0.6875 3.9375zm11.276932 4.578125q-0.90625 0.9375 -2.3125 0.90625q-1.109375 -0.03125 -1.640625 -0.796875q-0.53125 -0.765625 -0.40625 -2.078125l0.84375 -5.015625l1.28125 0l-0.828125 5.03125q-0.03125 0.3125 -0.015625 0.609375q0.03125 0.515625 0.296875 0.8125q0.28125 0.296875 0.765625 0.3125q1.390625 0.046875 2.15625 -1.125l0.96875 -5.640625l1.296875 0l-1.34375 7.75l-1.234375 0l0.171875 -0.765625zm5.564041 -6.984375l-0.1875 0.984375q1.046875 -1.15625 2.375 -1.125q1.09375 0.03125 1.609375 0.765625q0.53125 0.734375 0.390625 2.046875l-0.84375 5.078125l-1.296875 0l0.859375 -5.09375q0.03125 -0.359375 0 -0.65625q-0.125 -1.0 -1.1875 -1.015625q-1.15625 -0.03125 -2.046875 1.234375l-0.953125 5.53125l-1.296875 0l1.34375 -7.75l1.234375 0zm8.7586975 -1.875l-0.328125 1.875l1.40625 0l-0.171875 1.03125l-1.40625 0l-0.8125 4.8125q-0.015625 0.1875 0 0.34375q0.046875 0.5625 0.609375 0.5625q0.234375 0 0.625 -0.078125l-0.09375 1.078125q-0.46875 0.140625 -0.953125 0.140625q-0.765625 -0.015625 -1.15625 -0.5625q-0.390625 -0.5625 -0.296875 -1.5l0.78125 -4.796875l-1.359375 0l0.171875 -1.03125l1.375 0l0.328125 -1.875l1.28125 0zm2.7004242 9.625l-1.28125 0l1.34375 -7.75l1.28125 0l-1.34375 7.75zm1.0625 -10.5625q0.328125 -0.015625 0.546875 0.203125q0.21875 0.203125 0.21875 0.546875q0 0.328125 -0.21875 0.546875q-0.203125 0.21875 -0.546875 0.234375q-0.328125 0 -0.546875 -0.203125q-0.21875 -0.203125 -0.21875 -0.53125q0.015625 -0.34375 0.21875 -0.5625q0.21875 -0.234375 0.546875 -0.234375zm3.614685 2.8125l-0.171875 0.859375q0.96875 -1.03125 2.359375 -1.0q0.734375 0.015625 1.25 0.34375q0.515625 0.3125 0.703125 0.90625q1.09375 -1.28125 2.5625 -1.25q1.171875 0.03125 1.71875 0.78125q0.546875 0.75 0.40625 2.015625l-0.859375 5.09375l-1.28125 0l0.84375 -5.109375q0.046875 -0.359375 0 -0.671875q-0.140625 -0.96875 -1.28125 -1.0q-0.703125 -0.015625 -1.28125 0.453125q-0.578125 0.453125 -0.734375 1.1875l-0.875 5.140625l-1.3125 0l0.859375 -5.09375q0.09375 -0.796875 -0.25 -1.21875q-0.328125 -0.4375 -1.015625 -0.453125q-1.21875 -0.03125 -1.9375 1.109375l-0.96875 5.65625l-1.296875 0l1.34375 -7.75l1.21875 0zm13.3276825 7.890625q-1.453125 -0.03125 -2.265625 -1.0625q-0.8125 -1.03125 -0.6875 -2.65625l0.03125 -0.3125q0.125 -1.140625 0.6875 -2.09375q0.5625 -0.953125 1.359375 -1.4375q0.8125 -0.484375 1.75 -0.46875q1.203125 0.03125 1.875 0.796875q0.6875 0.765625 0.75 2.078125q0.015625 0.46875 -0.03125 0.921875l-0.078125 0.59375l-5.0625 0q-0.125 1.0625 0.34375 1.796875q0.484375 0.734375 1.421875 0.765625q1.15625 0.03125 2.125 -1.03125l0.75 0.625q-0.5 0.703125 -1.265625 1.109375q-0.765625 0.390625 -1.703125 0.375zm0.8125 -6.953125q-0.796875 -0.015625 -1.40625 0.546875q-0.59375 0.5625 -0.9375 1.6875l3.765625 0l0.03125 -0.109375q0.109375 -0.90625 -0.296875 -1.5q-0.40625 -0.59375 -1.15625 -0.625z" fill-rule="nonzero"/><path fill="#000000" fill-opacity="0.0" d="m-40.0 244.72179l167.74803 0l0 37.16536l-167.74803 0z" fill-rule="evenodd"/><path fill="#999999" d="m70.65198 267.8018l-1.34375 0l0.828125 -4.8125l-5.078125 0l-0.84375 4.8125l-1.34375 0l1.8125 -10.421875l1.34375 0l-0.78125 4.484375l5.078125 0l0.78125 -4.484375l1.359375 0l-1.8125 10.421875zm6.5174866 -7.890625q0.984375 0.015625 1.671875 0.53125q0.703125 0.515625 1.03125 1.421875q0.328125 0.90625 0.21875 1.984375l-0.015625 0.15625q-0.125 1.125 -0.671875 2.046875q-0.53125 0.90625 -1.390625 1.421875q-0.84375 0.5 -1.859375 0.46875q-0.96875 -0.015625 -1.671875 -0.53125q-0.6875 -0.515625 -1.015625 -1.390625q-0.3125 -0.890625 -0.21875 -1.96875q0.09375 -1.1875 0.640625 -2.140625q0.546875 -0.96875 1.40625 -1.5q0.859375 -0.53125 1.875 -0.5zm-2.625 4.15625q-0.046875 0.453125 0 0.9375q0.0625 0.84375 0.5 1.34375q0.4375 0.5 1.15625 0.515625q0.640625 0.03125 1.1875 -0.3125q0.546875 -0.34375 0.921875 -1.03125q0.375 -0.6875 0.484375 -1.515625q0.046875 -0.65625 0.015625 -1.109375q-0.09375 -0.875 -0.53125 -1.375q-0.421875 -0.5 -1.15625 -0.53125q-1.0 -0.015625 -1.703125 0.796875q-0.703125 0.8125 -0.859375 2.109375l-0.015625 0.171875zm11.304733 1.640625q0.109375 -0.796875 -0.875 -1.140625l-1.34375 -0.390625q-1.703125 -0.578125 -1.65625 -1.9375q0.046875 -1.03125 0.9375 -1.6875q0.890625 -0.65625 2.078125 -0.640625q1.171875 0.015625 1.90625 0.6875q0.734375 0.671875 0.703125 1.75l-1.28125 -0.015625q0.015625 -0.578125 -0.375 -0.9375q-0.375 -0.375 -1.0 -0.390625q-0.671875 -0.015625 -1.15625 0.328125q-0.453125 0.328125 -0.53125 0.84375q-0.09375 0.6875 0.828125 0.984375l0.65625 0.1875q1.328125 0.34375 1.875 0.890625q0.5625 0.546875 0.53125 1.359375q-0.046875 0.734375 -0.484375 1.265625q-0.421875 0.53125 -1.140625 0.828125q-0.71875 0.28125 -1.53125 0.25q-1.21875 -0.015625 -2.03125 -0.71875q-0.796875 -0.703125 -0.765625 -1.8125l1.296875 0q0 0.65625 0.40625 1.0625q0.421875 0.390625 1.140625 0.390625q0.71875 0 1.21875 -0.296875q0.515625 -0.3125 0.59375 -0.859375zm6.0246887 -7.53125l-0.328125 1.875l1.40625 0l-0.171875 1.03125l-1.40625 0l-0.8125 4.8125q-0.015625 0.1875 0 0.34375q0.046875 0.5625 0.609375 0.5625q0.234375 0 0.625 -0.078125l-0.09375 1.078125q-0.46875 0.140625 -0.953125 0.140625q-0.765625 -0.015625 -1.15625 -0.5625q-0.390625 -0.5625 -0.296875 -1.5l0.78125 -4.796875l-1.359375 0l0.171875 -1.03125l1.375 0l0.328125 -1.875l1.28125 0zm11.167923 6.90625l-4.21875 0l-1.421875 2.71875l-1.4375 0l5.65625 -10.421875l1.1875 0l2.0625 10.421875l-1.328125 0l-0.5 -2.71875zm-3.625 -1.125l3.4375 0l-0.875 -4.859375l-2.5625 4.859375zm6.893097 3.84375l1.8125 -10.421875l3.046875 0.015625q1.609375 0 2.390625 0.71875q0.796875 0.703125 0.703125 1.984375q-0.125 1.5 -1.890625 2.25q0.703125 0.28125 1.046875 0.9375q0.359375 0.65625 0.296875 1.453125q-0.109375 1.40625 -1.140625 2.234375q-1.015625 0.828125 -2.640625 0.828125l-3.625 0zm2.1875 -4.875l-0.65625 3.75l2.140625 0.015625q0.96875 0 1.625 -0.515625q0.65625 -0.53125 0.765625 -1.421875q0.09375 -0.84375 -0.296875 -1.3125q-0.390625 -0.484375 -1.234375 -0.5l-2.34375 -0.015625zm0.203125 -1.09375l1.9375 0q0.90625 0 1.53125 -0.46875q0.625 -0.46875 0.734375 -1.28125q0.09375 -0.75 -0.296875 -1.140625q-0.390625 -0.390625 -1.296875 -0.421875l-2.046875 0l-0.5625 3.3125zm7.970871 5.96875l-1.34375 0l1.8125 -10.421875l1.34375 0l-1.8125 10.421875z" fill-rule="nonzero"/><path fill="#000000" fill-opacity="0.0" d="m10.15748 215.96063l117.57481 -0.15748596" fill-rule="evenodd"/><path stroke="#999999" stroke-width="1.0" stroke-linejoin="round" stroke-linecap="butt" stroke-dasharray="1.0,3.0" d="m10.15748 215.96063l117.57481 -0.15748596" fill-rule="evenodd"/><path fill="#000000" fill-opacity="0.0" d="m-31.937008 148.6273l159.68504 0l0 37.165344l-159.68504 0z" fill-rule="evenodd"/><path fill="#999999" d="m72.34408 169.01979q0.15625 -1.140625 -1.1875 -1.671875l-1.25 -0.453125l-0.40625 -0.171875q-2.09375 -0.953125 -1.953125 -2.6875q0.0625 -0.859375 0.578125 -1.515625q0.53125 -0.671875 1.390625 -1.03125q0.875 -0.359375 1.84375 -0.34375q0.9375 0.015625 1.671875 0.421875q0.75 0.40625 1.140625 1.125q0.390625 0.71875 0.34375 1.609375l-1.359375 0q0.078125 -0.953125 -0.421875 -1.484375q-0.5 -0.53125 -1.4375 -0.546875q-0.96875 -0.015625 -1.640625 0.46875q-0.65625 0.46875 -0.75 1.28125q-0.140625 1.0625 1.3125 1.625l1.0625 0.375l0.53125 0.234375q2.015625 0.921875 1.875 2.75q-0.078125 0.890625 -0.59375 1.53125q-0.515625 0.640625 -1.40625 1.0q-0.875 0.34375 -1.890625 0.3125q-0.984375 0 -1.796875 -0.40625q-0.8125 -0.421875 -1.234375 -1.140625q-0.421875 -0.71875 -0.375 -1.625l1.34375 0.015625q-0.0625 0.921875 0.5 1.46875q0.578125 0.546875 1.609375 0.5625q1.046875 0.015625 1.71875 -0.4375q0.671875 -0.46875 0.78125 -1.265625zm2.6495514 2.6875l1.8125 -10.421875l2.703125 0.015625q1.28125 0 2.1875 0.640625q0.921875 0.625 1.328125 1.75q0.40625 1.109375 0.234375 2.5l-0.078125 0.53125q-0.3125 2.265625 -1.765625 3.625q-1.453125 1.359375 -3.640625 1.359375l-2.78125 0zm2.953125 -9.28125l-1.421875 8.15625l1.328125 0.015625q1.515625 0 2.5625 -0.9375q1.0625 -0.953125 1.390625 -2.609375q0.25 -1.3125 0.171875 -2.234375q-0.109375 -1.109375 -0.75 -1.734375q-0.625 -0.625 -1.6875 -0.65625l-1.59375 0zm9.911942 4.453125l-1.515625 1.359375l-0.609375 3.46875l-1.34375 0l1.8125 -10.421875l1.34375 0l-0.890625 5.078125l5.3125 -5.078125l1.734375 0l-4.84375 4.671875l3.234375 5.75l-1.484375 0l-2.75 -4.828125zm15.183121 2.109375l-4.21875 0l-1.421875 2.71875l-1.4375 0l5.65625 -10.421875l1.1875 0l2.0625 10.421875l-1.328125 0l-0.5 -2.71875zm-3.625 -1.125l3.4375 0l-0.875 -4.859375l-2.5625 4.859375zm6.893097 3.84375l1.8125 -10.421875l3.046875 0.015625q1.609375 0 2.390625 0.71875q0.796875 0.703125 0.703125 1.984375q-0.125 1.5 -1.890625 2.25q0.703125 0.28125 1.046875 0.9375q0.359375 0.65625 0.296875 1.453125q-0.109375 1.40625 -1.140625 2.234375q-1.015625 0.828125 -2.640625 0.828125l-3.625 0zm2.1875 -4.875l-0.65625 3.75l2.140625 0.015625q0.96875 0 1.625 -0.515625q0.65625 -0.53125 0.765625 -1.421875q0.09375 -0.84375 -0.296875 -1.3125q-0.390625 -0.484375 -1.234375 -0.5l-2.34375 -0.015625zm0.203125 -1.09375l1.9375 0q0.90625 0 1.53125 -0.46875q0.625 -0.46875 0.734375 -1.28125q0.09375 -0.75 -0.296875 -1.140625q-0.390625 -0.390625 -1.296875 -0.421875l-2.046875 0l-0.5625 3.3125zm7.970871 5.96875l-1.34375 0l1.8125 -10.421875l1.34375 0l-1.8125 10.421875z" fill-rule="nonzero"/><path fill="#000000" fill-opacity="0.0" d="m-31.937008 95.18898l159.68504 0l0 37.165344l-159.68504 0z" fill-rule="evenodd"/><path fill="#999999" d="m51.046818 115.581474q0.15625 -1.140625 -1.1875 -1.671875l-1.25 -0.453125l-0.40625 -0.171875q-2.09375 -0.953125 -1.953125 -2.6875q0.0625 -0.859375 0.578125 -1.515625q0.53125 -0.671875 1.390625 -1.03125q0.875 -0.359375 1.84375 -0.34375q0.9375 0.015625 1.671875 0.421875q0.75 0.40625 1.140625 1.125q0.390625 0.71875 0.34375 1.609375l-1.359375 0q0.078125 -0.953125 -0.421875 -1.484375q-0.5 -0.53125 -1.4375 -0.546875q-0.96875 -0.015625 -1.640625 0.46875q-0.65625 0.46875 -0.75 1.28125q-0.140625 1.0625 1.3125 1.625l1.0625 0.375l0.53125 0.234375q2.015625 0.921875 1.875 2.75q-0.078125 0.890625 -0.59375 1.53125q-0.515625 0.640625 -1.40625 1.0q-0.875 0.34375 -1.890625 0.3125q-0.984375 0 -1.796875 -0.40625q-0.8125 -0.421875 -1.234375 -1.140625q-0.421875 -0.71875 -0.375 -1.625l1.34375 0.015625q-0.0625 0.921875 0.5 1.46875q0.578125 0.546875 1.609375 0.5625q1.046875 0.015625 1.71875 -0.4375q0.671875 -0.46875 0.78125 -1.265625zm2.6495514 2.6875l1.8125 -10.421875l2.703125 0.015625q1.28125 0 2.1875 0.640625q0.921875 0.625 1.328125 1.75q0.40625 1.109375 0.234375 2.5l-0.078125 0.53125q-0.3125 2.265625 -1.765625 3.625q-1.453125 1.359375 -3.640625 1.359375l-2.78125 0zm2.953125 -9.28125l-1.421875 8.15625l1.328125 0.015625q1.515625 0 2.5625 -0.9375q1.0625 -0.953125 1.390625 -2.609375q0.25 -1.3125 0.171875 -2.234375q-0.109375 -1.109375 -0.75 -1.734375q-0.625 -0.625 -1.6875 -0.65625l-1.59375 0zm9.911945 4.453125l-1.515625 1.359375l-0.609375 3.46875l-1.3437538 0l1.8125038 -10.421875l1.34375 0l-0.890625 5.078125l5.3125 -5.078125l1.734375 0l-4.84375 4.671875l3.234375 5.75l-1.484375 0l-2.75 -4.828125zm10.651871 3.703125l4.796875 0l-0.203125 1.125l-6.140625 0l1.8125 -10.421875l1.34375 0l-1.609375 9.296875zm7.3779755 1.125l-1.28125 0l1.34375 -7.75l1.28125 0l-1.34375 7.75zm1.0625 -10.5625q0.328125 -0.015625 0.546875 0.203125q0.21875 0.203125 0.21875 0.546875q0 0.328125 -0.21875 0.546875q-0.203125 0.21875 -0.546875 0.234375q-0.328125 0 -0.546875 -0.203125q-0.21875 -0.203125 -0.21875 -0.53125q0.015625 -0.34375 0.21875 -0.5625q0.21875 -0.234375 0.546875 -0.234375zm8.083435 6.734375q-0.140625 1.1875 -0.65625 2.140625q-0.5 0.9375 -1.234375 1.40625q-0.71875 0.453125 -1.59375 0.4375q-1.40625 -0.03125 -2.078125 -1.0625l-0.265625 0.90625l-1.203125 0l1.90625 -11.0l1.296875 0l-0.78125 4.109375q0.9375 -1.03125 2.265625 -1.0q1.125 0.03125 1.734375 0.828125q0.625 0.796875 0.671875 2.1875q0 0.453125 -0.046875 0.890625l-0.015625 0.15625zm-1.234375 -0.765625q0.03125 -1.03125 -0.34375 -1.578125q-0.375 -0.5625 -1.140625 -0.59375q-1.203125 -0.03125 -2.046875 1.21875l-0.578125 3.359375q0.421875 1.1875 1.609375 1.21875q0.75 0.03125 1.3125 -0.453125q0.578125 -0.484375 0.875 -1.34375q0.296875 -0.859375 0.3125 -1.828125zm7.0665436 -1.96875l-0.59375 -0.0625q-1.25 0 -1.96875 1.125l-0.953125 5.5l-1.296875 0l1.34375 -7.75l1.25 0l-0.1875 0.90625q0.828125 -1.078125 1.9375 -1.0625q0.234375 0 0.625 0.109375l-0.15625 1.234375zm4.5160675 6.5625q-0.046875 -0.203125 -0.046875 -0.40625l0.03125 -0.40625q-1.078125 0.984375 -2.265625 0.953125q-1.03125 -0.015625 -1.671875 -0.640625q-0.640625 -0.640625 -0.578125 -1.59375q0.078125 -1.234375 1.078125 -1.921875q1.0 -0.6875 2.640625 -0.6875l1.359375 0.015625l0.078125 -0.625q0.078125 -0.6875 -0.265625 -1.09375q-0.34375 -0.40625 -1.015625 -0.421875q-0.671875 -0.015625 -1.1875 0.328125q-0.5 0.34375 -0.625 0.890625l-1.296875 0.015625q0.0625 -0.6875 0.53125 -1.203125q0.46875 -0.53125 1.1875 -0.8125q0.734375 -0.296875 1.515625 -0.28125q1.203125 0.03125 1.875 0.734375q0.6875 0.703125 0.578125 1.875l-0.640625 3.828125l-0.03125 0.546875q-0.015625 0.390625 0.09375 0.78125l-0.015625 0.125l-1.328125 0zm-2.03125 -1.0q0.625 0.015625 1.171875 -0.296875q0.5625 -0.3125 0.96875 -0.859375l0.28125 -1.59375l-0.984375 -0.015625q-1.21875 0 -1.875 0.390625q-0.65625 0.390625 -0.734375 1.09375q-0.0625 0.546875 0.25 0.90625q0.3125 0.359375 0.921875 0.375zm9.916977 -5.5625l-0.59375 -0.0625q-1.25 0 -1.96875 1.125l-0.953125 5.5l-1.296875 0l1.34375 -7.75l1.25 0l-0.1875 0.90625q0.828125 -1.078125 1.9375 -1.0625q0.234375 0 0.625 0.109375l-0.15625 1.234375zm2.978302 4.609375l2.75 -5.796875l1.4375 0l-4.59375 9.03125q-0.96875 1.890625 -2.46875 1.875q-0.265625 -0.015625 -0.78125 -0.140625l0.125 -1.0625l0.328125 0.03125q0.625 0.03125 1.0625 -0.28125q0.453125 -0.296875 0.796875 -0.984375l0.46875 -0.890625l-1.34375 -7.578125l1.34375 0l0.875 5.796875z" fill-rule="nonzero"/><path fill="#000000" fill-opacity="0.0" d="m513.1942 208.56955c0 3.339798 -2.707428 6.047241 -6.047241 6.047241l-139.9685 0c-3.3397827 0 -6.047241 2.7074432 -6.047241 6.0472565l0 0c0 -3.3398132 -2.707428 -6.0472565 -6.047241 -6.0472565l-139.9685 0l0 0c-3.339798 0 -6.047241 -2.7074432 -6.047241 -6.047241z" fill-rule="evenodd"/><path fill="#000000" fill-opacity="0.0" d="m513.1942 208.56955c0 3.339798 -2.707428 6.047241 -6.047241 6.047241l-139.9685 0c-3.3397827 0 -6.047241 2.7074432 -6.047241 6.0472565l0 0c0 -3.3398132 -2.707428 -6.0472565 -6.047241 -6.0472565l-139.9685 0l0 0c-3.339798 0 -6.047241 -2.7074432 -6.047241 -6.047241" fill-rule="evenodd"/><path stroke="#666666" stroke-width="1.0" stroke-linejoin="round" stroke-linecap="butt" d="m513.1942 208.56955c0 3.339798 -2.707428 6.047241 -6.047241 6.047241l-139.9685 0c-3.3397827 0 -6.047241 2.7074432 -6.047241 6.0472565l0 0c0 -3.3398132 -2.707428 -6.0472565 -6.047241 -6.0472565l-139.9685 0l0 0c-3.339798 0 -6.047241 -2.7074432 -6.047241 -6.047241" fill-rule="evenodd"/><path fill="#8e7cc3" d="m131.75328 13.299212l126.96062 0l0 52.818897l-126.96062 0z" fill-rule="evenodd"/><path stroke="#666666" stroke-width="1.0" stroke-linejoin="round" stroke-linecap="butt" d="m131.75328 13.299212l126.96062 0l0 52.818897l-126.96062 0z" fill-rule="evenodd"/><path fill="#000000" d="m166.74922 40.959286l-2.671875 0l0 4.609375l-1.515625 0l0 -11.375l3.765625 0q1.921875 0 2.953125 0.875q1.046875 0.875 1.046875 2.546875q0 1.0625 -0.578125 1.859375q-0.578125 0.78125 -1.59375 1.171875l2.671875 4.828125l0 0.09375l-1.609375 0l-2.46875 -4.609375zm-2.671875 -1.21875l2.296875 0q1.125 0 1.78125 -0.578125q0.65625 -0.578125 0.65625 -1.546875q0 -1.0625 -0.625 -1.625q-0.625 -0.5625 -1.8125 -0.5625l-2.296875 0l0 4.3125zm13.3359375 4.984375q-0.84375 1.0 -2.46875 1.0q-1.359375 0 -2.0625 -0.78125q-0.703125 -0.796875 -0.71875 -2.328125l0 -5.5l1.453125 0l0 5.453125q0 1.921875 1.5625 1.921875q1.65625 0 2.203125 -1.234375l0 -6.140625l1.4375 0l0 8.453125l-1.375 0l-0.03125 -0.84375zm8.5234375 -1.40625q0 -0.578125 -0.4375 -0.90625q-0.4375 -0.328125 -1.546875 -0.5625q-1.09375 -0.234375 -1.734375 -0.5625q-0.640625 -0.328125 -0.953125 -0.78125q-0.3125 -0.453125 -0.3125 -1.078125q0 -1.03125 0.875 -1.75q0.890625 -0.71875 2.25 -0.71875q1.4375 0 2.328125 0.75q0.90625 0.734375 0.90625 1.890625l-1.453125 0q0 -0.59375 -0.515625 -1.015625q-0.5 -0.4375 -1.265625 -0.4375q-0.78125 0 -1.234375 0.34375q-0.4375 0.34375 -0.4375 0.890625q0 0.53125 0.40625 0.796875q0.421875 0.265625 1.5 0.515625q1.078125 0.234375 1.75 0.578125q0.671875 0.328125 1.0 0.796875q0.328125 0.46875 0.328125 1.15625q0 1.125 -0.90625 1.8125q-0.90625 0.6875 -2.359375 0.6875q-1.015625 0 -1.796875 -0.359375q-0.78125 -0.359375 -1.21875 -1.0q-0.4375 -0.65625 -0.4375 -1.40625l1.4375 0q0.046875 0.734375 0.578125 1.15625q0.546875 0.421875 1.4375 0.421875q0.828125 0 1.3125 -0.328125q0.5 -0.328125 0.5 -0.890625zm5.296875 -8.25l0 2.046875l1.578125 0l0 1.109375l-1.578125 0l0 5.25q0 0.5 0.203125 0.765625q0.21875 0.25 0.71875 0.25q0.25 0 0.6875 -0.09375l0 1.171875q-0.5625 0.15625 -1.109375 0.15625q-0.96875 0 -1.46875 -0.578125q-0.484375 -0.59375 -0.484375 -1.671875l0 -5.25l-1.53125 0l0 -1.109375l1.53125 0l0 -2.046875l1.453125 0zm7.703125 10.5l0 -7.34375l-1.328125 0l0 -1.109375l1.328125 0l0 -0.71875q0 -1.421875 0.8125 -2.203125q0.8125 -0.796875 2.28125 -0.796875q0.875 0 2.21875 0.484375l-0.25 1.21875q-0.96875 -0.390625 -1.859375 -0.390625q-0.921875 0 -1.34375 0.421875q-0.40625 0.40625 -0.40625 1.25l0 0.734375l1.734375 0l0 1.109375l-1.734375 0l0 7.34375l-1.453125 0zm6.03125 0l-1.453125 0l0 -8.453125l1.453125 0l0 8.453125zm3.921875 0l-1.453125 0l0 -12.0l1.453125 0l0 12.0zm4.2734375 -10.5l0 2.046875l1.578125 0l0 1.109375l-1.578125 0l0 5.25q0 0.5 0.203125 0.765625q0.21875 0.25 0.71875 0.25q0.25 0 0.6875 -0.09375l0 1.171875q-0.5625 0.15625 -1.109375 0.15625q-0.96875 0 -1.46875 -0.578125q-0.484375 -0.59375 -0.484375 -1.671875l0 -5.25l-1.53125 0l0 -1.109375l1.53125 0l0 -2.046875l1.453125 0zm6.7734375 10.65625q-1.71875 0 -2.796875 -1.125q-1.078125 -1.140625 -1.078125 -3.03125l0 -0.265625q0 -1.25 0.46875 -2.234375q0.484375 -1.0 1.34375 -1.546875q0.875 -0.5625 1.875 -0.5625q1.65625 0 2.5625 1.09375q0.921875 1.078125 0.921875 3.09375l0 0.609375l-5.734375 0q0.03125 1.25 0.734375 2.015625q0.703125 0.765625 1.78125 0.765625q0.765625 0 1.296875 -0.3125q0.53125 -0.3125 0.921875 -0.828125l0.890625 0.6875q-1.0625 1.640625 -3.1875 1.640625zm-0.1875 -7.578125q-0.875 0 -1.46875 0.640625q-0.59375 0.625 -0.734375 1.78125l4.234375 0l0 -0.109375q-0.0625 -1.109375 -0.59375 -1.703125q-0.53125 -0.609375 -1.4375 -0.609375zm9.2421875 0.265625q-0.328125 -0.0625 -0.71875 -0.0625q-1.421875 0 -1.921875 1.21875l0 6.0l-1.453125 0l0 -8.453125l1.40625 0l0.03125 0.96875q0.703125 -1.125 2.015625 -1.125q0.421875 0 0.640625 0.109375l0 1.34375z" fill-rule="nonzero"/><path fill="#b4a7d6" d="m297.65128 13.299212l126.96063 0l0 52.818897l-126.96063 0z" fill-rule="evenodd"/><path stroke="#666666" stroke-width="1.0" stroke-linejoin="round" stroke-linecap="butt" d="m297.65128 13.299212l126.96063 0l0 52.818897l-126.96063 0z" fill-rule="evenodd"/><path fill="#000000" d="m338.6316 41.959286q-0.203125 1.796875 -1.328125 2.78125q-1.125 0.984375 -2.984375 0.984375q-2.015625 0 -3.234375 -1.4375q-1.203125 -1.453125 -1.203125 -3.875l0 -1.09375q0 -1.59375 0.5625 -2.796875q0.5625 -1.203125 1.59375 -1.84375q1.046875 -0.640625 2.421875 -0.640625q1.8125 0 2.90625 1.015625q1.09375 1.0 1.265625 2.796875l-1.5 0q-0.203125 -1.359375 -0.859375 -1.96875q-0.640625 -0.609375 -1.8125 -0.609375q-1.4375 0 -2.265625 1.0625q-0.8125 1.0625 -0.8125 3.015625l0 1.109375q0 1.84375 0.765625 2.9375q0.78125 1.09375 2.171875 1.09375q1.25 0 1.921875 -0.5625q0.671875 -0.5625 0.890625 -1.96875l1.5 0zm5.9609375 -2.5l3.171875 0l0 1.375l-3.171875 0l0 3.59375l-1.453125 0l0 -3.59375l-3.171875 0l0 -1.375l3.171875 0l0 -3.3125l1.453125 0l0 3.3125zm9.0703125 0l3.171875 0l0 1.375l-3.171875 0l0 3.59375l-1.453125 0l0 -3.59375l-3.171875 0l0 -1.375l3.171875 0l0 -3.3125l1.453125 0l0 3.3125zm9.375 6.109375l0 -7.34375l-1.328125 0l0 -1.109375l1.328125 0l0 -0.71875q0 -1.421875 0.8125 -2.203125q0.8125 -0.796875 2.28125 -0.796875q0.875 0 2.21875 0.484375l-0.25 1.21875q-0.96875 -0.390625 -1.859375 -0.390625q-0.921875 0 -1.34375 0.421875q-0.40625 0.40625 -0.40625 1.25l0 0.734375l1.734375 0l0 1.109375l-1.734375 0l0 7.34375l-1.453125 0zm6.03125 0l-1.453125 0l0 -8.453125l1.453125 0l0 8.453125zm3.921875 0l-1.453125 0l0 -12.0l1.453125 0l0 12.0zm4.2734375 -10.5l0 2.046875l1.578125 0l0 1.109375l-1.578125 0l0 5.25q0 0.5 0.203125 0.765625q0.21875 0.25 0.71875 0.25q0.25 0 0.6875 -0.09375l0 1.171875q-0.5625 0.15625 -1.109375 0.15625q-0.96875 0 -1.46875 -0.578125q-0.484375 -0.59375 -0.484375 -1.671875l0 -5.25l-1.53125 0l0 -1.109375l1.53125 0l0 -2.046875l1.453125 0zm6.7734375 10.65625q-1.71875 0 -2.796875 -1.125q-1.078125 -1.140625 -1.078125 -3.03125l0 -0.265625q0 -1.25 0.46875 -2.234375q0.484375 -1.0 1.34375 -1.546875q0.875 -0.5625 1.875 -0.5625q1.65625 0 2.5625 1.09375q0.921875 1.078125 0.921875 3.09375l0 0.609375l-5.734375 0q0.03125 1.25 0.734375 2.015625q0.703125 0.765625 1.78125 0.765625q0.765625 0 1.296875 -0.3125q0.53125 -0.3125 0.921875 -0.828125l0.890625 0.6875q-1.0625 1.640625 -3.1875 1.640625zm-0.1875 -7.578125q-0.875 0 -1.46875 0.640625q-0.59375 0.625 -0.734375 1.78125l4.234375 0l0 -0.109375q-0.0625 -1.109375 -0.59375 -1.703125q-0.53125 -0.609375 -1.4375 -0.609375zm9.2421875 0.265625q-0.328125 -0.0625 -0.71875 -0.0625q-1.421875 0 -1.921875 1.21875l0 6.0l-1.453125 0l0 -8.453125l1.40625 0l0.03125 0.96875q0.703125 -1.125 2.015625 -1.125q0.421875 0 0.640625 0.109375l0 1.34375z" fill-rule="nonzero"/><path fill="#d9d2e9" d="m463.54855 13.299212l126.96066 0l0 52.818897l-126.96066 0z" fill-rule="evenodd"/><path stroke="#666666" stroke-width="1.0" stroke-linejoin="round" stroke-linecap="butt" d="m463.54855 13.299212l126.96066 0l0 52.818897l-126.96066 0z" fill-rule="evenodd"/><path fill="#000000" d="m508.82574 44.06866q-0.578125 0.828125 -1.609375 1.25q-1.03125 0.40625 -2.40625 0.40625q-1.390625 0 -2.46875 -0.65625q-1.078125 -0.65625 -1.671875 -1.859375q-0.59375 -1.203125 -0.609375 -2.78125l0 -1.0q0 -2.5625 1.203125 -3.96875q1.203125 -1.421875 3.375 -1.421875q1.78125 0 2.859375 0.90625q1.09375 0.90625 1.328125 2.578125l-1.5 0q-0.421875 -2.25 -2.6875 -2.25q-1.5 0 -2.28125 1.0625q-0.78125 1.046875 -0.78125 3.0625l0 0.921875q0 1.921875 0.875 3.046875q0.875 1.125 2.359375 1.125q0.84375 0 1.46875 -0.1875q0.640625 -0.1875 1.0625 -0.625l0 -2.5625l-2.640625 0l0 -1.21875l4.125 0l0 4.171875zm1.8984375 -2.8125q0 -1.234375 0.484375 -2.21875q0.484375 -1.0 1.359375 -1.53125q0.875 -0.546875 1.984375 -0.546875q1.734375 0 2.796875 1.203125q1.0625 1.1875 1.0625 3.171875l0 0.09375q0 1.234375 -0.46875 2.21875q-0.46875 0.984375 -1.359375 1.53125q-0.875 0.546875 -2.015625 0.546875q-1.71875 0 -2.78125 -1.1875q-1.0625 -1.203125 -1.0625 -3.171875l0 -0.109375zm1.453125 0.171875q0 1.40625 0.640625 2.265625q0.65625 0.84375 1.75 0.84375q1.109375 0 1.75 -0.859375q0.65625 -0.859375 0.65625 -2.421875q0 -1.390625 -0.671875 -2.25q-0.65625 -0.859375 -1.75 -0.859375q-1.0625 0 -1.71875 0.859375q-0.65625 0.84375 -0.65625 2.421875zm12.4921875 4.140625l0 -7.34375l-1.328125 0l0 -1.109375l1.328125 0l0 -0.71875q0 -1.421875 0.8125 -2.203125q0.8125 -0.796875 2.28125 -0.796875q0.875 0 2.21875 0.484375l-0.25 1.21875q-0.96875 -0.390625 -1.859375 -0.390625q-0.921875 0 -1.34375 0.421875q-0.40625 0.40625 -0.40625 1.25l0 0.734375l1.734375 0l0 1.109375l-1.734375 0l0 7.34375l-1.453125 0zm6.03125 0l-1.453125 0l0 -8.453125l1.453125 0l0 8.453125zm3.921875 0l-1.453125 0l0 -12.0l1.453125 0l0 12.0zm4.2734375 -10.5l0 2.046875l1.578125 0l0 1.109375l-1.578125 0l0 5.25q0 0.5 0.203125 0.765625q0.21875 0.25 0.71875 0.25q0.25 0 0.6875 -0.09375l0 1.171875q-0.5625 0.15625 -1.109375 0.15625q-0.96875 0 -1.46875 -0.578125q-0.484375 -0.59375 -0.484375 -1.671875l0 -5.25l-1.53125 0l0 -1.109375l1.53125 0l0 -2.046875l1.453125 0zm6.7734375 10.65625q-1.71875 0 -2.796875 -1.125q-1.078125 -1.140625 -1.078125 -3.03125l0 -0.265625q0 -1.25 0.46875 -2.234375q0.484375 -1.0 1.34375 -1.546875q0.875 -0.5625 1.875 -0.5625q1.65625 0 2.5625 1.09375q0.921875 1.078125 0.921875 3.09375l0 0.609375l-5.734375 0q0.03125 1.25 0.734375 2.015625q0.703125 0.765625 1.78125 0.765625q0.765625 0 1.296875 -0.3125q0.53125 -0.3125 0.921875 -0.828125l0.890625 0.6875q-1.0625 1.640625 -3.1875 1.640625zm-0.1875 -7.578125q-0.875 0 -1.46875 0.640625q-0.59375 0.625 -0.734375 1.78125l4.234375 0l0 -0.109375q-0.0625 -1.109375 -0.59375 -1.703125q-0.53125 -0.609375 -1.4375 -0.609375zm9.2421875 0.265625q-0.328125 -0.0625 -0.71875 -0.0625q-1.421875 0 -1.921875 1.21875l0 6.0l-1.453125 0l0 -8.453125l1.40625 0l0.03125 0.96875q0.703125 -1.125 2.015625 -1.125q0.421875 0 0.640625 0.109375l0 1.34375z" fill-rule="nonzero"/><path fill="#000000" fill-opacity="0.0" d="m-31.937008 21.929134l159.68504 0l0 37.165356l-159.68504 0z" fill-rule="evenodd"/><path fill="#999999" d="m93.39265 40.415382l-4.25 0l-0.796875 4.59375l-1.34375 0l1.8125 -10.421875l6.265625 0l-0.203125 1.140625l-4.921875 0l-0.609375 3.5625l4.234375 0l-0.1875 1.125zm2.7417603 4.59375l-1.28125 0l1.34375 -7.75l1.28125 0l-1.34375 7.75zm1.0625 -10.5625q0.328125 -0.015625 0.546875 0.203125q0.21875 0.203125 0.21875 0.546875q0 0.328125 -0.21875 0.546875q-0.203125 0.21875 -0.546875 0.234375q-0.328125 0 -0.546875 -0.203125q-0.21875 -0.203125 -0.21875 -0.53125q0.015625 -0.34375 0.21875 -0.5625q0.21875 -0.234375 0.546875 -0.234375zm2.458435 10.5625l-1.28125 0l1.890625 -11.0l1.296875 0l-1.90625 11.0zm5.53656 -9.625l-0.328125 1.875l1.40625 0l-0.171875 1.03125l-1.40625 0l-0.8125 4.8125q-0.015625 0.1875 0 0.34375q0.046875 0.5625 0.609375 0.5625q0.234375 0 0.625 -0.078125l-0.09375 1.078125q-0.46875 0.140625 -0.953125 0.140625q-0.765625 -0.015625 -1.15625 -0.5625q-0.390625 -0.5625 -0.296875 -1.5l0.78125 -4.796875l-1.359375 0l0.171875 -1.03125l1.375 0l0.328125 -1.875l1.28125 0zm4.653549 9.765625q-1.453125 -0.03125 -2.265625 -1.0625q-0.8125 -1.03125 -0.6875 -2.65625l0.03125 -0.3125q0.125 -1.140625 0.6875 -2.09375q0.5625 -0.953125 1.359375 -1.4375q0.8125 -0.484375 1.75 -0.46875q1.203125 0.03125 1.875 0.796875q0.6875 0.765625 0.75 2.078125q0.015625 0.46875 -0.03125 0.921875l-0.078125 0.59375l-5.0625 0q-0.125 1.0625 0.34375 1.796875q0.484375 0.734375 1.421875 0.765625q1.15625 0.03125 2.125 -1.03125l0.75 0.625q-0.5 0.703125 -1.265625 1.109375q-0.765625 0.390625 -1.703125 0.375zm0.8125 -6.953125q-0.796875 -0.015625 -1.40625 0.546875q-0.59375 0.5625 -0.9375 1.6875l3.765625 0l0.03125 -0.109375q0.109375 -0.90625 -0.296875 -1.5q-0.40625 -0.59375 -1.15625 -0.625zm8.240692 0.25l-0.59375 -0.0625q-1.25 0 -1.96875 1.125l-0.953125 5.5l-1.296875 0l1.34375 -7.75l1.25 0l-0.1875 0.90625q0.828125 -1.078125 1.9375 -1.0625q0.234375 0 0.625 0.109375l-0.15625 1.234375z" fill-rule="nonzero"/><path fill="#000000" fill-opacity="0.0" d="m10.15748 78.02362l121.6063 -0.34645844" fill-rule="evenodd"/><path stroke="#999999" stroke-width="1.0" stroke-linejoin="round" stroke-linecap="butt" stroke-dasharray="1.0,3.0" d="m10.15748 78.02362l121.6063 -0.34645844" fill-rule="evenodd"/></g></svg>