<?xml version="1.0" encoding="UTF-8"?>
<svg width="1056px" height="1080px" viewBox="0 0 1056 1080" version="1.1" xmlns="http://www.w3.org/2000/svg" xmlns:xlink="http://www.w3.org/1999/xlink">
    <title>webassembly</title>
    <g id="Page-1" stroke="none" stroke-width="1" fill="none" fill-rule="evenodd">
        <g id="webassembly" fill-rule="nonzero">
            <g id="icon">
                <path d="M628.34112,0 C628.34112,1.29481132 628.34112,2.58962264 628.34112,3.95258193 C628.34112,50.3967404 590.620128,88.0471698 544.088926,88.0471698 C497.557724,88.0471698 459.836732,50.3967404 459.836732,3.95258193 C459.836732,2.58962264 459.836732,1.29481132 459.836732,0 L176.902297,0 L176.902297,733.408391 L911.685209,733.408391 L911.685209,0 L628.34112,0 Z" id="Shape" fill="#F28130"></path>
                <path d="M65.9421759,1076.73784 L99.3132499,963.418552 C103.047076,951.228673 105.769658,940.009327 107.480995,929.760512 C107.558783,931.313363 108.608922,935.933094 110.631411,943.619705 C112.653901,951.306316 114.48192,957.673004 116.115469,962.719769 L116.115469,962.719769 L150.536682,1076.73784 L170.139271,1076.73784 L215.761963,906.467751 L194.759189,906.467751 L167.922311,1011.40164 C163.799545,1027.24072 160.999175,1040.67288 159.521202,1051.69812 C156.954196,1036.55782 153.80378,1022.97038 150.069954,1010.93578 L150.069954,1010.93578 L117.982382,906.467751 L96.9796084,906.467751 L66.4089042,1010.00407 C62.2861374,1023.59152 59.1746154,1037.48953 57.074338,1051.69812 C55.3630009,1039.74117 52.640419,1026.38665 48.9065926,1011.63457 L48.9065926,1011.63457 L21.9530327,906.467751 L0.950258837,906.467751 L46.3395869,1076.73784 L65.9421759,1076.73784 Z M276.64067,1076.73784 L297.643444,1022.58217 L366.019141,1022.58217 L387.255279,1076.73784 L407.791325,1076.73784 L340.699131,905.768968 L324.013593,905.768968 L256.571353,1076.73784 L276.64067,1076.73784 Z M359.834991,1004.7632 L304.644369,1004.7632 L324.713686,952.005099 C327.902996,943.076207 330.35332,934.884919 332.064657,927.431236 C334.787239,937.136553 337.432032,945.327841 339.999038,952.005099 L339.999038,952.005099 L359.834991,1004.7632 Z M513.942678,1079.06711 C532.61181,1079.06711 547.39154,1074.87441 558.281867,1066.48902 C569.172195,1058.10363 574.617358,1046.41842 574.617358,1031.43341 C574.617358,1019.78703 571.253025,1010.31464 564.524358,1003.01625 C557.795692,995.717847 545.485733,988.885304 527.594481,982.518616 C516.937518,978.714132 509.022584,975.239628 503.849678,972.095105 C498.676773,968.950583 495.001287,965.49549 492.823222,961.729827 C490.645157,957.964164 489.556124,953.130916 489.556124,947.230083 C489.556124,939.232901 492.51207,932.982677 498.423962,928.47941 C504.335854,923.976143 512.542493,921.724509 523.04388,921.724509 C536.345637,921.724509 550.036334,924.674926 564.115971,930.575759 L564.115971,930.575759 L570.300121,913.339115 C556.064908,907.127712 540.468404,904.022011 523.510608,904.022011 C507.252906,904.022011 494.184513,907.904138 484.30543,915.668391 C474.426348,923.432645 469.486807,933.875566 469.486807,946.997155 C469.486807,959.497604 472.890034,969.629955 479.696488,977.394209 C486.502943,985.158462 497.840551,991.874542 513.709314,997.542447 C525.066369,1001.57986 533.52582,1005.19024 539.087666,1008.37358 C544.649511,1011.55693 548.616702,1015.03143 550.989238,1018.79709 C553.361773,1022.56275 554.548041,1027.396 554.548041,1033.29684 C554.548041,1042.22573 551.203155,1049.19415 544.513382,1054.20209 C537.82361,1059.21003 527.866739,1061.714 514.64277,1061.714 C506.552813,1061.714 498.385068,1060.85994 490.139534,1059.1518 C481.894001,1057.44366 474.270772,1055.11439 467.269847,1052.16397 L467.269847,1052.16397 L467.269847,1071.26404 C478.160174,1076.46609 493.717785,1079.06711 513.942678,1079.06711 Z M674.934607,1076.73784 L674.934607,968.426495 C674.934607,951.966278 674.390091,937.757693 673.301058,925.800742 L673.301058,925.800742 L674.234515,925.800742 L732.108825,1076.73784 L748.09427,1076.73784 L806.435308,926.03367 L807.368765,926.03367 C806.279732,940.785752 805.735216,954.450839 805.735216,967.02893 L805.735216,967.02893 L805.735216,1076.73784 L825.571169,1076.73784 L825.571169,906.467751 L795.933921,906.467751 L741.443391,1046.9231 L740.509935,1046.9231 L686.486133,906.467751 L656.615521,906.467751 L656.615521,1076.73784 L674.934607,1076.73784 Z M934.756256,1076.73784 L974.428162,1012.33335 L1014.10007,1076.73784 L1055.40552,1076.73784 L997.764578,990.90401 L1051.32165,906.467751 L1012.34984,906.467751 L976.295076,967.727713 L939.540221,906.467751 L899.634951,906.467751 L952.608614,988.924125 L896.017807,1076.73784 L934.756256,1076.73784 Z" id="WASMX" fill="#393939"></path>
                <polygon id="WX" fill="#FFFFFF" points="690.108178 657.342105 741.361925 557.902441 792.615671 657.342105 845.979866 657.342105 771.511187 524.815825 840.703745 394.447368 790.354476 394.447368 743.773866 489.031932 696.288777 394.447368 644.733538 394.447368 713.172364 521.75891 640.060403 657.342105"></polygon>
            </g>
        </g>
    </g>
</svg>